<svg width="120" height="28" viewBox="0 0 120 28" fill="none" xmlns="http://www.w3.org/2000/svg">
<path d="M119.868 11.4685C119.852 11.6303 119.852 11.7436 119.868 11.8083C119.884 11.8731 119.884 11.9216 119.868 11.954C119.835 12.0673 119.779 12.1482 119.698 12.1967C119.617 12.2291 119.544 12.2777 119.479 12.3424C119.318 12.2615 119.172 12.2453 119.043 12.2938C118.913 12.3424 118.784 12.3828 118.654 12.4152C118.622 12.4152 118.565 12.4233 118.484 12.4395C118.419 12.4395 118.371 12.4395 118.339 12.4395C118.209 12.4395 118.088 12.4638 117.974 12.5123C117.861 12.5609 117.756 12.5932 117.659 12.6094C117.578 12.6256 117.505 12.6256 117.44 12.6094C117.376 12.5932 117.303 12.6094 117.222 12.6579C117.157 12.8036 117.133 12.9654 117.149 13.1434C117.181 13.3053 117.181 13.4752 117.149 13.6532C117.117 13.9121 117.109 14.1225 117.125 14.2843C117.157 14.43 117.173 14.5675 117.173 14.697C117.173 14.8426 117.165 14.9802 117.149 15.1097C117.149 15.2391 117.181 15.3605 117.246 15.4738C117.198 15.5709 117.165 15.6923 117.149 15.8379C117.149 15.9674 117.149 16.0968 117.149 16.2263C117.117 16.4528 117.117 16.7118 117.149 17.0031C117.181 17.2944 117.198 17.5533 117.198 17.7798C117.181 17.8931 117.165 17.9983 117.149 18.0954C117.149 18.1763 117.141 18.2653 117.125 18.3624C117.092 18.4919 117.084 18.5728 117.101 18.6052C117.117 18.6375 117.125 18.6699 117.125 18.7023C117.109 18.8641 117.101 19.0502 117.101 19.2606C117.117 19.471 117.117 19.6894 117.101 19.916C117.101 20.0616 117.092 20.1668 117.076 20.2316C117.06 20.2963 117.052 20.3529 117.052 20.4015C117.068 20.5309 117.084 20.6685 117.101 20.8142C117.133 20.9598 117.092 21.1054 116.979 21.2511C116.979 21.2996 116.987 21.3482 117.003 21.3967C117.036 21.4291 117.06 21.4696 117.076 21.5181C117.044 21.6476 117.036 21.7447 117.052 21.8094C117.084 21.8741 117.101 21.9227 117.101 21.955C117.068 22.1331 117.06 22.2868 117.076 22.4163C117.092 22.5295 117.109 22.6428 117.125 22.7561C117.125 23.2578 117.02 23.5895 116.809 23.7514C116.599 23.719 116.389 23.6866 116.178 23.6543C115.984 23.6219 115.782 23.6219 115.571 23.6543C115.474 23.6704 115.377 23.6866 115.28 23.7028C115.183 23.7352 115.07 23.7271 114.94 23.6785C114.859 23.6947 114.803 23.7109 114.77 23.7271C114.738 23.7594 114.689 23.7756 114.625 23.7756C114.56 23.7918 114.503 23.7756 114.455 23.7271C114.406 23.6785 114.349 23.6462 114.285 23.63C114.252 23.4358 114.244 23.193 114.26 22.9018C114.293 22.6105 114.301 22.303 114.285 21.9793C114.285 21.8984 114.277 21.8337 114.26 21.7851C114.244 21.7204 114.228 21.6476 114.212 21.5667C114.196 21.4534 114.188 21.3401 114.188 21.2268C114.204 21.0974 114.204 20.9679 114.188 20.8384C114.188 20.7899 114.196 20.7413 114.212 20.6928C114.228 20.628 114.236 20.5714 114.236 20.5229C114.236 20.4581 114.22 20.4258 114.188 20.4258C114.171 20.4096 114.163 20.3529 114.163 20.2558C114.163 20.0455 114.18 19.8513 114.212 19.6733C114.26 19.4952 114.301 19.3172 114.333 19.1392C114.301 18.945 114.285 18.8075 114.285 18.7266C114.285 18.6295 114.285 18.5485 114.285 18.4838C114.269 18.4191 114.244 18.3463 114.212 18.2653C114.18 18.1844 114.163 18.1035 114.163 18.0226C114.163 17.9579 114.163 17.9093 114.163 17.8769C114.18 17.8446 114.171 17.7879 114.139 17.707C114.123 17.4319 114.123 17.1892 114.139 16.9788C114.171 16.7522 114.18 16.5338 114.163 16.3234C114.115 16.1454 114.091 16.0078 114.091 15.9107C114.091 15.7974 114.082 15.7003 114.066 15.6194C114.05 15.5061 114.034 15.3848 114.018 15.2553C114.018 15.1258 114.026 14.9883 114.042 14.8426C114.042 14.7779 114.05 14.7213 114.066 14.6727C114.082 14.6242 114.091 14.5675 114.091 14.5028C114.091 14.4219 114.074 14.3491 114.042 14.2843C114.026 14.2196 114.018 14.1468 114.018 14.0659C114.018 13.9364 114.026 13.7988 114.042 13.6532C114.074 13.5076 114.091 13.37 114.091 13.2405C114.074 13.192 114.058 13.1434 114.042 13.0949C114.026 13.0302 114.018 12.9735 114.018 12.925C114.002 12.7631 114.01 12.6094 114.042 12.4638C114.091 12.3181 114.099 12.1725 114.066 12.0268C113.743 12.0915 113.484 12.1563 113.289 12.221C113.225 12.2372 113.16 12.2534 113.095 12.2696C113.047 12.2696 112.982 12.2857 112.901 12.3181C112.772 12.3505 112.666 12.3828 112.586 12.4152C112.505 12.4476 112.416 12.4233 112.318 12.3424C112.173 12.2129 112.084 12.1077 112.051 12.0268C112.035 11.8974 112.051 11.7922 112.1 11.7112C112.165 11.6303 112.238 11.5494 112.318 11.4685C112.286 11.4038 112.286 11.3552 112.318 11.3229C112.351 11.2905 112.375 11.2339 112.391 11.1529C112.408 11.072 112.408 10.9911 112.391 10.9102C112.391 10.8131 112.408 10.716 112.44 10.6189C112.472 10.5218 112.513 10.4328 112.561 10.3519C112.61 10.271 112.642 10.1901 112.658 10.1091C112.675 9.99586 112.666 9.88258 112.634 9.7693C112.602 9.65601 112.602 9.54273 112.634 9.42945C112.683 9.15434 112.885 9.04915 113.241 9.11389C113.338 9.14625 113.427 9.17053 113.508 9.18671C113.589 9.20289 113.646 9.25144 113.678 9.33236C113.824 9.31617 113.929 9.33236 113.993 9.3809C114.074 9.42945 114.18 9.45373 114.309 9.45373C114.422 9.30808 114.471 9.11389 114.455 8.87114C114.438 8.6284 114.438 8.36947 114.455 8.09436C114.487 7.94871 114.495 7.84353 114.479 7.77879C114.463 7.71406 114.447 7.64933 114.43 7.5846C114.398 7.34185 114.406 7.11529 114.455 6.90492C114.471 6.85637 114.487 6.80782 114.503 6.75927C114.519 6.69454 114.527 6.6379 114.527 6.58935C114.527 6.45988 114.503 6.3466 114.455 6.24951C114.455 6.15241 114.438 6.07959 114.406 6.03104C114.39 5.98249 114.366 5.94203 114.333 5.90966C114.317 5.8773 114.301 5.85302 114.285 5.83684C114.269 5.80448 114.269 5.75593 114.285 5.69119C114.398 5.57791 114.479 5.52937 114.527 5.54555C114.576 5.54555 114.641 5.54555 114.722 5.54555C114.851 5.51318 114.956 5.48891 115.037 5.47273C115.134 5.45654 115.256 5.46463 115.401 5.497C115.547 5.46463 115.66 5.46463 115.741 5.497C115.822 5.51318 115.911 5.52937 116.008 5.54555C116.073 5.52937 116.13 5.50509 116.178 5.47273C116.227 5.44036 116.275 5.41609 116.324 5.3999C116.372 5.43227 116.437 5.44036 116.518 5.42418C116.599 5.39181 116.656 5.40799 116.688 5.47273C116.769 5.58601 116.825 5.65883 116.858 5.69119C116.89 5.70738 116.906 5.73165 116.906 5.76402C116.939 5.89348 116.939 6.07959 116.906 6.32233C116.89 6.54889 116.874 6.75118 116.858 6.92919C116.874 7.0101 116.882 7.09102 116.882 7.17193C116.882 7.23667 116.882 7.30949 116.882 7.3904C116.882 7.43895 116.874 7.50368 116.858 7.5846C116.842 7.66551 116.834 7.72215 116.834 7.75452C116.882 7.90017 116.898 8.01345 116.882 8.09436C116.882 8.15909 116.89 8.20764 116.906 8.24001C116.923 8.35329 116.947 8.45848 116.979 8.55557C117.012 8.63649 116.971 8.73359 116.858 8.84687C116.89 8.94397 116.898 9.04106 116.882 9.13816C116.866 9.21908 116.85 9.31617 116.834 9.42945C116.834 9.478 116.834 9.53464 116.834 9.59937C116.85 9.66411 116.858 9.72075 116.858 9.7693C116.858 9.85021 116.842 9.92303 116.809 9.98777C116.777 10.0525 116.777 10.1253 116.809 10.2062C116.939 10.2224 117.052 10.1981 117.149 10.1334C117.246 10.0687 117.343 10.0201 117.44 9.98777C117.537 9.9554 117.635 9.94731 117.732 9.96349C117.845 9.96349 117.95 9.92303 118.047 9.84212C118.128 9.90685 118.217 9.90685 118.314 9.84212C118.411 9.77739 118.492 9.79357 118.557 9.89067C118.638 9.79357 118.775 9.72075 118.97 9.6722C119.164 9.62365 119.326 9.62365 119.455 9.6722C119.52 9.80166 119.568 9.89067 119.601 9.93922C119.633 9.97158 119.657 10.0039 119.674 10.0363C119.69 10.0687 119.69 10.1172 119.674 10.182C119.657 10.2305 119.657 10.2871 119.674 10.3519C119.706 10.4813 119.714 10.5704 119.698 10.6189C119.698 10.6513 119.698 10.6836 119.698 10.716C119.714 10.8293 119.738 10.9345 119.771 11.0316C119.803 11.1287 119.827 11.2177 119.844 11.2986L119.868 11.4685Z" fill="#FF4DAD"/>
<path d="M110.224 6.22544C110.256 6.2578 110.264 6.37108 110.248 6.56528C110.232 6.75947 110.208 6.89703 110.175 6.97794C110.159 7.02649 110.135 7.07504 110.103 7.12359C110.07 7.15596 110.038 7.18832 110.005 7.22069C109.973 7.41488 109.925 7.56862 109.86 7.6819C109.795 7.79518 109.746 7.89228 109.714 7.97319C109.633 8.00556 109.552 8.05411 109.471 8.11884C109.407 8.16739 109.334 8.20785 109.253 8.24021C109.059 8.30495 108.897 8.36968 108.767 8.43441C108.638 8.48296 108.508 8.50723 108.379 8.50723C108.314 8.50723 108.258 8.49914 108.209 8.48296C108.161 8.45059 108.112 8.42632 108.063 8.41013C107.983 8.39395 107.902 8.38586 107.821 8.38586C107.74 8.38586 107.659 8.37777 107.578 8.36159C107.497 8.21594 107.4 8.08648 107.287 7.97319C107.19 7.84373 107.117 7.68999 107.068 7.51198C107.02 7.44725 106.947 7.36633 106.85 7.26924C106.85 7.13977 106.825 7.02649 106.777 6.9294C106.728 6.81611 106.704 6.69474 106.704 6.56528C106.704 6.46818 106.736 6.33872 106.801 6.17689C106.817 6.09597 106.825 6.01506 106.825 5.93414C106.842 5.85323 106.858 5.79659 106.874 5.76422C106.987 5.63476 107.068 5.56194 107.117 5.54575C107.165 5.51339 107.206 5.47293 107.238 5.42438C107.303 5.3111 107.335 5.23828 107.335 5.20591C107.335 5.17355 107.343 5.14118 107.36 5.10881C107.408 5.04408 107.473 4.98744 107.554 4.93889C107.651 4.87416 107.74 4.81752 107.821 4.76897C107.902 4.70424 108.007 4.67997 108.136 4.69615C108.266 4.69615 108.419 4.68806 108.598 4.67188C108.662 4.80134 108.767 4.89034 108.913 4.93889C109.059 4.98744 109.172 5.07645 109.253 5.20591C109.382 5.23828 109.463 5.26255 109.496 5.27874C109.528 5.27874 109.56 5.29492 109.593 5.32728C109.868 5.52148 110.07 5.78041 110.2 6.10407L110.224 6.22544ZM110.297 10.4249C110.264 10.5867 110.232 10.7486 110.2 10.9104C110.183 11.056 110.183 11.226 110.2 11.4202C110.2 11.5011 110.208 11.5739 110.224 11.6386C110.256 11.7034 110.272 11.7762 110.272 11.8571C110.272 11.9704 110.256 12.0918 110.224 12.2212C110.192 12.3345 110.175 12.4559 110.175 12.5853C110.175 12.7148 110.175 12.8362 110.175 12.9494C110.175 13.0465 110.183 13.1598 110.2 13.2893C110.2 13.354 110.208 13.4026 110.224 13.4349C110.24 13.4511 110.232 13.4916 110.2 13.5563C110.103 13.7829 110.078 14.0742 110.127 14.4302C110.175 14.7862 110.2 15.1018 110.2 15.3769C110.183 15.5387 110.159 15.7005 110.127 15.8624C110.094 16.0242 110.07 16.1941 110.054 16.3721C110.022 16.7443 109.997 17.1166 109.981 17.4888C109.981 17.8448 109.965 18.2008 109.933 18.5568C109.916 18.6539 109.908 18.7591 109.908 18.8724C109.925 18.9695 109.925 19.0585 109.908 19.1394C109.892 19.366 109.868 19.5845 109.835 19.7948C109.819 20.0052 109.795 20.2075 109.763 20.4017C109.746 20.5473 109.746 20.693 109.763 20.8386C109.779 20.9681 109.787 21.1056 109.787 21.2513C109.787 21.3322 109.787 21.405 109.787 21.4698C109.803 21.5345 109.811 21.6073 109.811 21.6882C109.827 21.753 109.844 21.8177 109.86 21.8824C109.876 21.931 109.884 21.9957 109.884 22.0766C109.868 22.1414 109.86 22.198 109.86 22.2465C109.86 22.2789 109.86 22.3113 109.86 22.3436C109.86 22.376 109.868 22.4003 109.884 22.4165C109.852 22.5459 109.844 22.6349 109.86 22.6835C109.876 22.7159 109.884 22.7482 109.884 22.7806C109.868 22.8291 109.844 22.8858 109.811 22.9505C109.795 22.9991 109.787 23.0638 109.787 23.1447C109.787 23.2742 109.795 23.4036 109.811 23.5331C109.844 23.6464 109.844 23.7677 109.811 23.8972C109.698 23.9458 109.593 23.9943 109.496 24.0429C109.399 24.1076 109.261 24.1157 109.083 24.0671C109.002 24.0348 108.954 23.97 108.937 23.8729C108.921 23.7758 108.881 23.6949 108.816 23.6302C108.687 23.614 108.573 23.5897 108.476 23.5574C108.395 23.525 108.314 23.4845 108.233 23.436C108.169 23.4684 108.08 23.4764 107.966 23.4603C107.869 23.4279 107.764 23.4036 107.651 23.3874C107.521 23.3551 107.4 23.3389 107.287 23.3389C107.173 23.3389 107.084 23.3227 107.02 23.2903C106.923 23.1609 106.866 23.0476 106.85 22.9505C106.85 22.8372 106.817 22.7563 106.753 22.7078C106.817 22.5621 106.858 22.4327 106.874 22.3194C106.906 22.1575 106.906 22.0119 106.874 21.8824C106.842 21.7368 106.834 21.583 106.85 21.4212C106.85 21.3727 106.866 21.2837 106.898 21.1542C106.914 21.0409 106.923 20.9438 106.923 20.8629C106.923 20.782 106.931 20.7011 106.947 20.6202C106.963 20.4907 106.979 20.4179 106.995 20.4017C107.012 20.3693 107.028 20.337 107.044 20.3046C107.06 20.0295 107.068 19.7463 107.068 19.455C107.084 19.1637 107.101 18.9533 107.117 18.8239C107.117 18.7429 107.117 18.6863 107.117 18.6539C107.133 18.6054 107.141 18.5407 107.141 18.4597C107.141 18.1361 107.149 17.861 107.165 17.6344C107.198 17.3917 107.206 17.1408 107.19 16.8819C107.173 16.7039 107.173 16.5421 107.19 16.3964C107.222 16.2508 107.238 16.1051 107.238 15.9595C107.254 15.7815 107.246 15.6277 107.214 15.4983C107.198 15.3526 107.23 15.207 107.311 15.0613C107.246 14.8995 107.222 14.7377 107.238 14.5758C107.271 14.414 107.287 14.2603 107.287 14.1146C107.287 13.9852 107.287 13.8638 107.287 13.7505C107.287 13.6372 107.295 13.5159 107.311 13.3864C107.311 13.3055 107.303 13.2246 107.287 13.1436C107.271 13.0465 107.279 12.9575 107.311 12.8766C107.327 12.6986 107.335 12.5772 107.335 12.5125C107.351 12.4316 107.36 12.375 107.36 12.3426C107.36 12.2779 107.343 12.2212 107.311 12.1727C107.295 12.1241 107.287 12.0756 107.287 12.027C107.287 11.9623 107.287 11.9056 107.287 11.8571C107.303 11.8086 107.303 11.76 107.287 11.7115C107.254 11.5173 107.23 11.3878 107.214 11.3231C107.214 11.2421 107.222 11.1774 107.238 11.1289C107.222 11.048 107.173 10.9994 107.092 10.9832C107.012 10.967 106.955 10.9266 106.923 10.8618C106.89 10.7324 106.858 10.5948 106.825 10.4492C106.793 10.2874 106.834 10.166 106.947 10.0851C107.028 10.0527 107.101 10.0446 107.165 10.0608C107.246 10.0608 107.343 10.0689 107.457 10.0851C107.554 10.1174 107.618 10.1255 107.651 10.1093C107.683 10.0932 107.716 10.0932 107.748 10.1093C107.796 10.1255 107.845 10.1498 107.894 10.1822C107.958 10.1983 108.023 10.2145 108.088 10.2307C108.25 10.2469 108.436 10.2469 108.646 10.2307C108.856 10.2145 109.059 10.1983 109.253 10.1822C109.463 10.1498 109.649 10.1336 109.811 10.1336C109.973 10.1174 110.086 10.1336 110.151 10.1822C110.2 10.2145 110.224 10.2631 110.224 10.3278C110.224 10.3764 110.248 10.4087 110.297 10.4249Z" fill="#FF4DAD"/>
<path d="M104.939 18.4355C104.939 18.5326 104.923 18.6458 104.891 18.7753C104.875 18.8886 104.85 19.01 104.818 19.1394C104.786 19.2689 104.753 19.366 104.721 19.4307C104.705 19.4793 104.697 19.5359 104.697 19.6006C104.713 19.6654 104.713 19.7139 104.697 19.7463C104.664 19.8272 104.624 19.9081 104.575 19.989C104.543 20.0699 104.511 20.1509 104.478 20.2318C104.446 20.3127 104.413 20.4017 104.381 20.4988C104.365 20.5797 104.341 20.6525 104.308 20.7173C104.276 20.7658 104.227 20.8063 104.163 20.8386C104.114 20.871 104.098 20.9276 104.114 21.0086C103.952 21.0733 103.823 21.1461 103.726 21.227C103.645 21.2918 103.58 21.3565 103.531 21.4212C103.483 21.486 103.418 21.5507 103.337 21.6154C103.305 21.6478 103.256 21.6801 103.192 21.7125C103.127 21.7449 103.062 21.7772 102.997 21.8096C102.868 21.8905 102.771 21.9553 102.706 22.0038C102.658 22.0362 102.617 22.0685 102.585 22.1009C102.552 22.1171 102.504 22.1252 102.439 22.1252C102.391 22.1252 102.35 22.1414 102.318 22.1737C102.204 22.2546 102.083 22.3194 101.954 22.3679C101.84 22.4003 101.743 22.4569 101.662 22.5378C101.598 22.554 101.541 22.554 101.492 22.5378C101.444 22.5217 101.395 22.5217 101.347 22.5378C101.185 22.5864 101.08 22.6268 101.031 22.6592C100.999 22.6754 100.958 22.6916 100.91 22.7078C100.813 22.7401 100.732 22.7644 100.667 22.7806C100.619 22.7806 100.562 22.7968 100.497 22.8291C100.303 22.8939 100.141 22.9262 100.012 22.9262C99.8822 22.9262 99.7608 22.9424 99.6476 22.9748C99.5666 23.0071 99.5019 23.0233 99.4534 23.0233C99.421 23.0233 99.3886 23.0314 99.3563 23.0476C99.3239 23.0476 99.2753 23.0638 99.2106 23.0962C99.1621 23.1123 99.1216 23.1285 99.0892 23.1447C98.9598 23.1123 98.8465 23.1042 98.7494 23.1204C98.6685 23.1204 98.5876 23.1204 98.5067 23.1204C98.3934 23.1204 98.2639 23.1285 98.1183 23.1447C97.9726 23.1609 97.8351 23.1771 97.7056 23.1933C97.6085 23.1933 97.5033 23.1852 97.39 23.169C97.2929 23.1528 97.1878 23.1528 97.0745 23.169C96.9612 23.1852 96.8317 23.2094 96.6861 23.2418C96.5566 23.2742 96.4352 23.2337 96.322 23.1204C96.2249 23.1852 96.1197 23.2013 96.0064 23.169C95.9093 23.1366 95.8041 23.1285 95.6908 23.1447C95.5775 23.1609 95.4724 23.2013 95.3753 23.2661C95.2943 23.3308 95.1892 23.347 95.0597 23.3146C94.9464 23.4117 94.8574 23.4684 94.7927 23.4845C94.7279 23.4845 94.6794 23.4926 94.647 23.5088C94.5176 23.5574 94.38 23.614 94.2344 23.6787C94.1049 23.7435 93.9512 23.7192 93.7732 23.6059C93.6599 23.6545 93.5142 23.6626 93.3362 23.6302C93.2391 23.5331 93.1339 23.3874 93.0206 23.1933C93.0206 23.0638 93.0449 22.9505 93.0935 22.8534C93.142 22.7401 93.1663 22.6268 93.1663 22.5136C93.1663 22.4165 93.142 22.3275 93.0935 22.2465C93.0611 22.1656 93.0368 22.0766 93.0206 21.9795C93.0045 21.8986 92.9964 21.8258 92.9964 21.7611C93.0126 21.6801 93.0206 21.5992 93.0206 21.5183C93.0206 21.4374 93.0126 21.3646 92.9964 21.2998C92.9802 21.2351 92.964 21.1623 92.9478 21.0814C92.9316 20.9519 92.9235 20.8386 92.9235 20.7415C92.9235 20.6283 92.9397 20.5069 92.9721 20.3774C92.9883 20.3127 92.9883 20.2318 92.9721 20.1347C92.9721 20.0214 93.0045 19.9 93.0692 19.7706C93.053 19.722 93.0368 19.6735 93.0206 19.6249C93.0045 19.5602 92.9964 19.4955 92.9964 19.4307C92.9964 19.3498 93.0045 19.2689 93.0206 19.188C93.053 19.1071 93.0692 19.0261 93.0692 18.9452C93.0854 18.8643 93.0854 18.7753 93.0692 18.6782C93.053 18.5811 93.0449 18.484 93.0449 18.3869C93.0611 18.306 93.0692 18.2332 93.0692 18.1684C93.0854 18.0875 93.0935 18.0147 93.0935 17.95C93.1097 17.9014 93.1177 17.8448 93.1177 17.7801C93.1177 17.7153 93.142 17.6749 93.1906 17.6587C93.1582 17.594 93.1339 17.5454 93.1177 17.513C93.1177 17.4645 93.1177 17.4079 93.1177 17.3431V17.0276C93.1177 16.9628 93.1258 16.9062 93.142 16.8576C93.1744 16.8091 93.1987 16.7524 93.2148 16.6877C93.2148 16.6553 93.2067 16.6149 93.1906 16.5663C93.1744 16.5178 93.1663 16.4692 93.1663 16.4207C93.1987 16.2912 93.2067 16.2022 93.1906 16.1537C93.1744 16.0889 93.1744 16.0323 93.1906 15.9838V15.3769C93.1906 15.3122 93.1987 15.2474 93.2148 15.1827C93.231 15.118 93.2391 15.0532 93.2391 14.9885C93.2391 14.9238 93.2229 14.859 93.1906 14.7943C93.1744 14.7296 93.1663 14.6648 93.1663 14.6001C93.1663 14.3574 93.1744 14.1065 93.1906 13.8476C93.2229 13.5887 93.1987 13.3378 93.1177 13.0951C93.1987 13.0304 93.2229 12.9575 93.1906 12.8766C93.1744 12.7957 93.1663 12.7148 93.1663 12.6339C93.1825 12.6015 93.1906 12.553 93.1906 12.4882C93.1906 12.4073 93.1906 12.3264 93.1906 12.2455C93.1582 12.0513 93.142 11.8328 93.142 11.5901C93.1582 11.3473 93.1825 11.0884 93.2148 10.8133C93.2472 10.6515 93.2472 10.5463 93.2148 10.4977C93.1987 10.4492 93.1906 10.4006 93.1906 10.3521C93.1744 10.3035 93.1663 10.255 93.1663 10.2064C93.1825 10.1579 93.1906 10.1174 93.1906 10.0851C93.1744 9.95561 93.1501 9.81805 93.1177 9.67241C93.1016 9.52676 93.1339 9.36493 93.2148 9.18692C93.1663 9.15455 93.142 9.106 93.142 9.04127C93.1582 8.97654 93.1582 8.91181 93.142 8.84708C93.1258 8.78234 93.1016 8.7257 93.0692 8.67716C93.053 8.62861 93.0368 8.57197 93.0206 8.50723C93.053 8.29686 93.053 8.11884 93.0206 7.9732C92.9883 7.82755 93.0126 7.71427 93.0935 7.63336C93.0611 7.55244 93.0287 7.4958 92.9964 7.46343C92.964 7.43107 92.9478 7.37443 92.9478 7.29351C92.964 7.2126 92.964 7.1155 92.9478 7.00222C92.9316 6.88894 92.9478 6.80803 92.9964 6.75948C92.964 6.69475 92.9235 6.63811 92.875 6.58956C92.8264 6.54101 92.8184 6.452 92.8507 6.32254C92.8184 6.25781 92.7536 6.1688 92.6565 6.05552C92.5756 5.94224 92.5918 5.83705 92.7051 5.73995C92.7698 5.65904 92.8669 5.6024 92.9964 5.57003C93.142 5.53767 93.2877 5.52148 93.4333 5.52148C93.579 5.5053 93.7165 5.49721 93.846 5.49721C93.9916 5.49721 94.1049 5.48912 94.1858 5.47293C94.3153 5.42438 94.4124 5.38393 94.4771 5.35156C94.558 5.30301 94.6875 5.27065 94.8655 5.25446C94.9302 5.25446 94.9788 5.25446 95.0111 5.25446C95.0597 5.23828 95.1163 5.23019 95.1811 5.23019C95.2296 5.23019 95.2863 5.23828 95.351 5.25446C95.4157 5.27065 95.4643 5.27874 95.4966 5.27874C95.5452 5.27874 95.5937 5.27065 95.6423 5.25446C95.6908 5.2221 95.7313 5.20592 95.7637 5.20592C95.8446 5.20592 95.9498 5.2221 96.0792 5.25446H96.7346C96.8641 5.25446 96.945 5.24637 96.9774 5.23019C97.0097 5.21401 97.0259 5.21401 97.0259 5.23019C97.0583 5.27874 97.1149 5.28683 97.1958 5.25446C97.2768 5.2221 97.3577 5.20592 97.4386 5.20592C97.6328 5.18973 97.8432 5.18164 98.0697 5.18164C98.3125 5.18164 98.539 5.19782 98.7494 5.23019C98.976 5.26256 99.1378 5.29492 99.2349 5.32729C99.3482 5.34347 99.4615 5.40011 99.5747 5.49721C99.8984 5.51339 100.198 5.58621 100.473 5.71568C100.748 5.82896 100.999 5.95033 101.225 6.07979C101.322 6.14453 101.387 6.19307 101.42 6.22544C101.468 6.25781 101.533 6.31445 101.614 6.39536C101.646 6.42773 101.679 6.46818 101.711 6.51673C101.759 6.56528 101.8 6.60574 101.832 6.63811C101.865 6.67047 101.881 6.71902 101.881 6.78375C101.897 6.8323 101.921 6.87276 101.954 6.90512C102.051 7.00222 102.099 7.06695 102.099 7.09932C102.115 7.1155 102.124 7.13168 102.124 7.14787C102.221 7.27733 102.277 7.37443 102.293 7.43916C102.326 7.50389 102.358 7.57672 102.391 7.65763C102.471 7.73854 102.536 7.82755 102.585 7.92465C102.633 8.02175 102.698 8.11075 102.779 8.19167C102.763 8.28876 102.763 8.37777 102.779 8.45869C102.795 8.5396 102.811 8.62051 102.828 8.70143C102.86 8.78234 102.884 8.85517 102.9 8.9199C102.933 8.96845 102.965 9.02509 102.997 9.08982C102.997 9.13837 102.997 9.19501 102.997 9.25974C102.997 9.30829 103.006 9.35684 103.022 9.40539C103.07 9.6805 103.054 9.93942 102.973 10.1822C102.941 10.2307 102.908 10.2793 102.876 10.3278C102.86 10.3602 102.836 10.4006 102.803 10.4492C102.771 10.5139 102.755 10.5787 102.755 10.6434C102.755 10.7081 102.738 10.7648 102.706 10.8133C102.674 10.8942 102.625 10.9832 102.56 11.0803C102.496 11.1612 102.439 11.2422 102.391 11.3231C102.358 11.3716 102.326 11.4202 102.293 11.4687C102.277 11.5011 102.253 11.5415 102.221 11.5901C102.188 11.6548 102.14 11.7276 102.075 11.8086C102.026 11.8733 101.978 11.938 101.929 12.0027C101.881 12.0675 101.832 12.1322 101.784 12.1969C101.735 12.2455 101.67 12.294 101.59 12.3426C101.46 12.4397 101.379 12.5206 101.347 12.5853C101.314 12.6339 101.29 12.6662 101.274 12.6824C101.242 12.8281 101.258 12.9171 101.322 12.9495C101.387 12.9656 101.436 12.9818 101.468 12.998C101.533 13.0142 101.59 13.0223 101.638 13.0223C101.703 13.0061 101.759 13.0142 101.808 13.0465C101.921 13.0789 102.018 13.1356 102.099 13.2165C102.18 13.2974 102.261 13.3702 102.342 13.4349C102.536 13.613 102.69 13.7505 102.803 13.8476C102.917 13.9447 103.038 14.0337 103.167 14.1146C103.264 14.2765 103.37 14.414 103.483 14.5273C103.612 14.6406 103.709 14.7862 103.774 14.9642C103.871 15.0613 103.936 15.1503 103.968 15.2312C104.001 15.296 104.049 15.3526 104.114 15.4012C104.13 15.4335 104.146 15.474 104.163 15.5225C104.195 15.5711 104.227 15.6115 104.26 15.6439C104.341 15.741 104.405 15.8705 104.454 16.0323C104.519 16.1779 104.583 16.3236 104.648 16.4692C104.68 16.5502 104.697 16.6311 104.697 16.712C104.697 16.7929 104.713 16.9062 104.745 17.0518C104.778 17.2137 104.826 17.424 104.891 17.683C104.956 17.9419 104.972 18.1927 104.939 18.4355ZM99.7932 9.98797C99.7285 9.89088 99.7042 9.76141 99.7204 9.59958C99.7366 9.43775 99.7285 9.28402 99.6961 9.13837C99.6476 9.05745 99.6233 9.00081 99.6233 8.96845C99.6395 8.93608 99.6395 8.90372 99.6233 8.87135C99.5586 8.77425 99.5181 8.71761 99.5019 8.70143C99.5019 8.66906 99.4938 8.62861 99.4776 8.58006C99.3482 8.51533 99.2511 8.43441 99.1863 8.33731C99.1216 8.22403 99.0407 8.12694 98.9436 8.04602C98.8303 8.01366 98.7656 7.98129 98.7494 7.94892C98.7332 7.91656 98.7089 7.89228 98.6766 7.8761C98.4986 7.84373 98.3367 7.82755 98.1911 7.82755C98.0616 7.81137 97.9322 7.79519 97.8027 7.779C97.6732 7.76282 97.5438 7.74664 97.4143 7.73045C97.2849 7.71427 97.1554 7.71427 97.0259 7.73045C96.8641 7.76282 96.7508 7.779 96.6861 7.779C96.6375 7.76282 96.5971 7.75473 96.5647 7.75473C96.3543 7.83564 96.1844 7.8761 96.0549 7.8761C95.9255 7.8761 95.796 7.89228 95.6666 7.92465C95.6342 8.03793 95.6261 8.15121 95.6423 8.26449C95.6746 8.37777 95.6908 8.49914 95.6908 8.62861C95.707 8.69334 95.707 8.74998 95.6908 8.79853C95.6908 8.84708 95.6908 8.90372 95.6908 8.96845C95.6908 9.04936 95.6989 9.13028 95.7151 9.21119C95.7475 9.29211 95.7637 9.37302 95.7637 9.45394C95.7637 9.53485 95.7556 9.61577 95.7394 9.69668C95.7232 9.7776 95.7151 9.85851 95.7151 9.93942C95.6989 10.0365 95.6989 10.1417 95.7151 10.255C95.7313 10.3683 95.7394 10.4492 95.7394 10.4977C95.7232 10.6757 95.7232 10.8052 95.7394 10.8861C95.7717 10.9509 95.8041 11.0237 95.8365 11.1046C95.7556 11.315 95.7475 11.5334 95.8122 11.76C95.8769 11.9704 95.9417 12.1646 96.0064 12.3426C96.0873 12.3264 96.1682 12.3021 96.2491 12.2698C96.3462 12.2374 96.4352 12.2131 96.5162 12.1969C96.6456 12.1646 96.767 12.1565 96.8803 12.1727C97.0097 12.1889 97.1392 12.1808 97.2687 12.1484C97.3658 12.116 97.4629 12.0756 97.56 12.027C97.6732 11.9785 97.7946 11.9704 97.9241 12.0027C98.1183 11.8571 98.361 11.7843 98.6523 11.7843C98.6847 11.7034 98.7494 11.6467 98.8465 11.6144C98.9436 11.582 99.0326 11.5496 99.1135 11.5173C99.1459 11.4687 99.1783 11.4283 99.2106 11.3959C99.2592 11.3473 99.2996 11.2988 99.332 11.2502C99.3967 11.1531 99.4453 11.0965 99.4776 11.0803C99.5262 11.048 99.5586 11.0156 99.5747 10.9832C99.6071 10.9347 99.6152 10.878 99.599 10.8133C99.599 10.7324 99.6395 10.6677 99.7204 10.6191C99.688 10.5058 99.6799 10.4006 99.6961 10.3035C99.7285 10.1903 99.7608 10.0851 99.7932 9.98797ZM101.492 17.4888C101.428 17.4079 101.371 17.3108 101.322 17.1975C101.29 17.0842 101.258 16.9628 101.225 16.8334C101.193 16.7686 101.153 16.7282 101.104 16.712C101.072 16.6958 101.039 16.6634 101.007 16.6149C100.942 16.4854 100.877 16.3964 100.813 16.3479C100.748 16.2993 100.699 16.2589 100.667 16.2265C100.586 16.1456 100.521 16.0889 100.473 16.0566C100.424 16.0242 100.36 15.9838 100.279 15.9352C100.149 15.8543 100.028 15.7896 99.9146 15.741C99.8013 15.6763 99.6961 15.6035 99.599 15.5225C99.3239 15.4578 99.0488 15.4093 98.7737 15.3769C98.5148 15.3445 98.2639 15.3122 98.0212 15.2798C97.6975 15.2636 97.4143 15.296 97.1716 15.3769C96.9288 15.4416 96.6294 15.4659 96.2734 15.4497C96.2411 15.5144 96.1925 15.563 96.1278 15.5954C96.0792 15.6115 96.0388 15.652 96.0064 15.7167C96.0226 16.2184 95.9983 16.7201 95.9336 17.2217C95.8688 17.7234 95.8607 18.1927 95.9093 18.6297C95.8769 18.8724 95.8688 19.0909 95.885 19.2851C95.9174 19.4631 95.9255 19.5925 95.9093 19.6735C95.8931 19.8029 95.9012 19.9162 95.9336 20.0133C95.9659 20.0942 95.9821 20.1751 95.9821 20.256C95.9821 20.2884 95.974 20.3289 95.9578 20.3774C95.9417 20.426 95.9336 20.4745 95.9336 20.5231C95.9336 20.5878 95.9255 20.6444 95.9093 20.693C95.9093 20.7254 95.9255 20.7739 95.9578 20.8386C96.1359 20.8386 96.3058 20.8144 96.4676 20.7658C96.6456 20.7011 96.8317 20.6525 97.0259 20.6202C97.1554 20.5878 97.2849 20.5635 97.4143 20.5473C97.5438 20.5312 97.6732 20.515 97.8027 20.4988C97.8836 20.4826 97.9403 20.4664 97.9726 20.4502C98.0212 20.4341 98.0616 20.426 98.094 20.426C98.1425 20.4098 98.1911 20.4017 98.2396 20.4017C98.2882 20.4017 98.3367 20.3936 98.3853 20.3774C98.7089 20.3127 99.0083 20.248 99.2834 20.1832C99.5747 20.1023 99.8579 19.989 100.133 19.8434C100.198 19.8272 100.254 19.8191 100.303 19.8191C100.368 19.8029 100.441 19.7867 100.521 19.7706C100.602 19.6896 100.683 19.6006 100.764 19.5035C100.861 19.3903 100.975 19.3013 101.104 19.2365C101.136 19.188 101.153 19.1313 101.153 19.0666C101.153 19.0019 101.193 18.9614 101.274 18.9452C101.29 18.8643 101.306 18.7996 101.322 18.751C101.355 18.7025 101.387 18.6539 101.42 18.6054C101.468 18.3788 101.476 18.1684 101.444 17.9743C101.428 17.7801 101.444 17.6182 101.492 17.4888Z" fill="#FF4DAD"/>
<path d="M90.398 16.955C90.3818 17.1816 90.3818 17.3353 90.398 17.4162C90.4142 17.4972 90.398 17.5862 90.3495 17.6833C90.3171 17.748 90.2524 17.7965 90.1553 17.8289C90.0743 17.8613 90.0177 17.9098 89.9853 17.9746C89.8882 17.9422 89.7831 17.9341 89.6698 17.9503C89.5565 17.9503 89.4594 17.9665 89.3785 17.9988C89.2652 17.9017 89.1034 17.8613 88.893 17.8775C88.6988 17.8936 88.537 17.8532 88.4075 17.7561C88.3104 17.8046 88.2214 17.8289 88.1405 17.8289C87.9139 17.8613 87.6712 17.8532 87.4123 17.8046C87.1695 17.7561 86.9187 17.7156 86.6597 17.6833C86.4817 17.6671 86.2956 17.659 86.1014 17.659C85.9072 17.659 85.7373 17.659 85.5917 17.659C85.4298 17.6914 85.3004 17.7075 85.2033 17.7075C85.0738 17.6914 84.9524 17.659 84.8392 17.6104C84.7421 17.5619 84.6288 17.5376 84.4993 17.5376C84.4022 17.5214 84.297 17.5295 84.1838 17.5619C84.0867 17.5781 83.9896 17.5862 83.8925 17.5862C83.7954 17.5862 83.6659 17.57 83.5041 17.5376C83.3746 17.5538 83.2856 17.5619 83.2371 17.5619C83.1885 17.5457 83.148 17.5376 83.1157 17.5376C83.0024 17.5376 82.8891 17.5457 82.7758 17.5619C82.6787 17.5781 82.5897 17.5376 82.5088 17.4405C82.4441 17.4891 82.3875 17.5214 82.3389 17.5376C82.2904 17.5538 82.2013 17.5619 82.0719 17.5619C81.991 17.5457 81.9262 17.5376 81.8777 17.5376C81.8453 17.5214 81.813 17.5133 81.7806 17.5133C81.6673 17.5457 81.5702 17.5538 81.4893 17.5376C81.4246 17.5214 81.3598 17.5457 81.2951 17.6104C81.2627 17.5781 81.2061 17.57 81.1252 17.5862C81.0443 17.5862 80.9876 17.57 80.9553 17.5376C80.7449 17.5053 80.575 17.5053 80.4455 17.5376C80.316 17.57 80.1785 17.5862 80.0328 17.5862C79.9034 17.5862 79.7739 17.57 79.6444 17.5376C79.5312 17.5053 79.3855 17.5053 79.2075 17.5376C79.1266 17.6833 79.0942 17.8694 79.1104 18.0959C79.1428 18.3063 79.2075 18.4762 79.3046 18.6057C79.3208 18.6866 79.3127 18.7513 79.2803 18.7999C79.2641 18.8484 79.2561 18.9132 79.2561 18.9941C79.3855 19.1721 79.4907 19.3016 79.5716 19.3825C79.6687 19.4634 79.7415 19.5443 79.7901 19.6252C79.871 19.7547 79.9681 19.8761 80.0814 19.9893C80.1947 20.1026 80.2999 20.2321 80.397 20.3777C80.4293 20.4586 80.4698 20.5234 80.5183 20.5719C80.5831 20.6205 80.6397 20.6852 80.6882 20.7661C80.8177 20.7985 80.9229 20.847 81.0038 20.9118C81.1009 20.9765 81.2142 21.0493 81.3437 21.1302C81.5217 21.2273 81.643 21.3163 81.7078 21.3973C81.7887 21.462 81.8858 21.5186 81.9991 21.5672C82.08 21.5995 82.1447 21.6157 82.1933 21.6157C82.2418 21.5995 82.2904 21.5995 82.3389 21.6157C82.4198 21.6481 82.5088 21.7047 82.6059 21.7856C82.703 21.8666 82.8082 21.9151 82.9215 21.9313C83.0995 21.9151 83.229 21.9151 83.3099 21.9313C83.3908 21.9313 83.4636 21.9394 83.5283 21.9556C83.7387 21.9717 83.9329 21.9232 84.1109 21.8099C84.1918 21.8099 84.2566 21.8099 84.3051 21.8099C84.3537 21.8099 84.4184 21.8018 84.4993 21.7856C84.645 21.6885 84.7502 21.64 84.8149 21.64C84.8958 21.64 84.9605 21.6238 85.0091 21.5914C85.0576 21.5429 85.0981 21.5186 85.1305 21.5186C85.179 21.5024 85.2195 21.4863 85.2518 21.4701C85.3489 21.4377 85.4298 21.3973 85.4946 21.3487C85.5755 21.3002 85.6564 21.2435 85.7373 21.1788C85.8506 21.114 85.9558 21.0412 86.0529 20.9603C86.2147 20.8632 86.3523 20.7257 86.4655 20.5476C86.595 20.3696 86.7326 20.2159 86.8782 20.0864C86.8944 19.8922 86.9268 19.7304 86.9753 19.6009C87.0239 19.4715 87.0886 19.3501 87.1695 19.2368C87.1695 19.0588 87.1857 18.9213 87.2181 18.8242C87.2666 18.7109 87.3232 18.6057 87.388 18.5086C87.4689 18.4924 87.5417 18.4762 87.6064 18.46C87.6712 18.4439 87.7521 18.452 87.8492 18.4843C87.8977 18.5167 87.9382 18.5491 87.9706 18.5814C88.0191 18.5976 88.0838 18.6219 88.1648 18.6542C88.2133 18.6866 88.2619 18.7109 88.3104 18.7271C88.3751 18.7271 88.4641 18.7432 88.5774 18.7756C88.6907 18.8242 88.7716 18.8484 88.8202 18.8484C88.8687 18.8484 88.9173 18.8565 88.9658 18.8727C89.0953 18.9374 89.2086 18.9617 89.3057 18.9455C89.4189 18.9294 89.516 18.9374 89.597 18.9698C89.775 19.0993 89.8802 19.1964 89.9125 19.2611C89.9125 19.4553 89.8559 19.6333 89.7426 19.7951C89.6617 19.9732 89.6212 20.0864 89.6212 20.135C89.6374 20.1673 89.6374 20.224 89.6212 20.3049C89.605 20.3535 89.5808 20.3939 89.5484 20.4263C89.516 20.4586 89.4918 20.5072 89.4756 20.5719C89.4432 20.669 89.4189 20.7661 89.4028 20.8632C89.3866 20.9441 89.3542 21.0331 89.3057 21.1302C89.1762 21.2921 89.071 21.4134 88.9901 21.4943C88.9254 21.5591 88.8525 21.6076 88.7716 21.64C88.804 21.7209 88.7878 21.7856 88.7231 21.8342C88.6583 21.8666 88.6098 21.8989 88.5774 21.9313C88.5289 22.0446 88.4561 22.1336 88.359 22.1983C88.278 22.263 88.1809 22.3359 88.0677 22.4168C87.9382 22.5301 87.8006 22.6272 87.655 22.7081C87.5255 22.789 87.3961 22.8699 87.2666 22.9508C87.0886 23.0965 86.9672 23.2016 86.9025 23.2664C86.8378 23.3149 86.7568 23.3554 86.6597 23.3878C86.5788 23.4201 86.5141 23.4525 86.4655 23.4848C86.4332 23.501 86.4089 23.5091 86.3927 23.5091C86.3118 23.5415 86.2228 23.5577 86.1257 23.5577C86.0286 23.5577 85.9315 23.5739 85.8344 23.6062C85.6564 23.671 85.5027 23.7114 85.3732 23.7276C85.2437 23.76 85.1143 23.7923 84.9848 23.8247C84.9039 23.8571 84.8311 23.8813 84.7663 23.8975C84.7016 23.9137 84.6045 23.9137 84.475 23.8975C84.3132 23.8651 84.1918 23.8732 84.1109 23.9218C84.03 23.9703 83.9491 23.9622 83.8682 23.8975C83.6902 23.9299 83.5364 23.9622 83.407 23.9946C83.2937 24.027 83.1885 24.0351 83.0914 24.0189C83.0429 24.0189 82.9943 24.0108 82.9458 23.9946C82.8972 23.9784 82.8487 23.9622 82.8001 23.9461C82.4926 23.8975 82.2418 23.8651 82.0476 23.849C81.8696 23.8328 81.7078 23.8004 81.5621 23.7519C81.5136 23.7357 81.465 23.7276 81.4165 23.7276C81.3679 23.7276 81.3275 23.6952 81.2951 23.6305C81.1333 23.6629 80.9795 23.6467 80.8339 23.5819C80.7044 23.501 80.5992 23.4201 80.5183 23.3392C80.4698 23.3392 80.4212 23.3311 80.3727 23.3149C80.3403 23.2987 80.2998 23.2826 80.2513 23.2664C80.138 23.2178 80.0247 23.1693 79.9115 23.1207C79.7982 23.056 79.7092 22.9589 79.6444 22.8294C79.515 22.8294 79.4179 22.7971 79.3532 22.7323C79.3046 22.6676 79.2399 22.6029 79.159 22.5381C79.0295 22.5381 78.9081 22.5058 78.7948 22.4411C78.6977 22.3601 78.6168 22.2711 78.5521 22.174C78.4226 22.0122 78.3013 21.8827 78.188 21.7856C78.01 21.6076 77.8724 21.462 77.7753 21.3487C77.6782 21.2192 77.5568 21.1302 77.4112 21.0817C77.3788 20.9846 77.3303 20.9037 77.2655 20.8389C77.2008 20.7742 77.1361 20.7014 77.0714 20.6205C76.9904 20.4586 76.9338 20.3535 76.9014 20.3049C76.8691 20.2564 76.8367 20.2159 76.8043 20.1835C76.772 20.0541 76.7396 19.9327 76.7072 19.8194C76.6911 19.6899 76.6668 19.5605 76.6344 19.431C76.5859 19.253 76.5616 19.1235 76.5616 19.0426C76.5616 18.9617 76.5535 18.8808 76.5373 18.7999C76.5211 18.7513 76.4969 18.7028 76.4645 18.6542C76.4483 18.6057 76.4321 18.5571 76.4159 18.5086C76.3998 18.4277 76.3917 18.3468 76.3917 18.2659C76.4079 18.1849 76.4079 18.0959 76.3917 17.9988C76.3755 17.9179 76.3593 17.8451 76.3431 17.7804C76.3269 17.6994 76.3188 17.6185 76.3188 17.5376C76.3188 17.4243 76.3269 17.3111 76.3431 17.1978C76.3593 17.0683 76.3674 16.9389 76.3674 16.8094C76.3674 16.777 76.3593 16.7366 76.3431 16.688C76.3431 16.6233 76.3431 16.5747 76.3431 16.5424C76.3593 16.4615 76.3836 16.3805 76.4159 16.2996C76.4645 16.2025 76.4969 16.1135 76.513 16.0326C76.4807 15.887 76.4726 15.7818 76.4888 15.717C76.5211 15.6523 76.5211 15.6038 76.4888 15.5714C76.5211 15.539 76.5454 15.4986 76.5616 15.45C76.5778 15.3853 76.594 15.3367 76.6101 15.3044C76.6263 15.2558 76.6344 15.1992 76.6344 15.1345C76.6344 15.0697 76.6506 14.9969 76.683 14.916C76.7639 14.7865 76.8124 14.7137 76.8286 14.6975C76.861 14.6651 76.8853 14.6409 76.9014 14.6247C76.9176 14.5114 76.9338 14.4386 76.95 14.4062C76.9662 14.3577 76.9904 14.3172 77.0228 14.2848C77.1037 14.123 77.1523 14.0259 77.1685 13.9936C77.2008 13.9612 77.2251 13.9288 77.2413 13.8965C77.2575 13.767 77.2736 13.6942 77.2898 13.678C77.306 13.6618 77.3222 13.6375 77.3384 13.6052C77.3707 13.5081 77.3869 13.4272 77.3869 13.3624C77.4031 13.2815 77.4274 13.2006 77.4597 13.1197C77.4921 13.0388 77.5326 12.9578 77.5811 12.8769C77.6297 12.7798 77.6944 12.6989 77.7753 12.6342C77.8562 12.44 77.929 12.2782 77.9938 12.1487C78.0585 12.0031 78.1232 11.8655 78.188 11.736C78.3336 11.6228 78.455 11.4933 78.5521 11.3476C78.6654 11.202 78.7948 11.0725 78.9405 10.9593C78.9729 10.9269 79.0052 10.9107 79.0376 10.9107C79.0861 10.8945 79.1428 10.8702 79.2075 10.8379C79.3855 10.7084 79.515 10.6113 79.5959 10.5466C79.6768 10.4657 79.7739 10.4009 79.8872 10.3524C79.9843 10.32 80.1299 10.3038 80.3241 10.3038C80.5345 10.2877 80.6801 10.2229 80.7611 10.1097C80.8582 10.1097 80.9553 10.0935 81.0524 10.0611C81.1495 10.0126 81.2466 9.964 81.3437 9.91546C81.4084 9.88309 81.4812 9.85072 81.5621 9.81836C81.643 9.76981 81.7563 9.75363 81.902 9.76981C82.0152 9.78599 82.1204 9.79408 82.2175 9.79408C82.3308 9.7779 82.4522 9.75363 82.5816 9.72126C82.6464 9.70508 82.7192 9.68889 82.8001 9.67271C82.881 9.65653 82.97 9.64844 83.0671 9.64844C83.3099 9.6808 83.496 9.69699 83.6254 9.69699C83.7711 9.69699 83.9329 9.70508 84.1109 9.72126C84.1918 9.72126 84.2728 9.71317 84.3537 9.69699C84.4508 9.66462 84.5479 9.64844 84.645 9.64844C84.7259 9.66462 84.7987 9.67271 84.8634 9.67271C84.9444 9.67271 85.0253 9.6808 85.1062 9.69699C85.2195 9.72935 85.2842 9.74554 85.3004 9.74554C85.3327 9.74554 85.357 9.74554 85.3732 9.74554C85.4541 9.76172 85.5189 9.79408 85.5674 9.84263C85.6321 9.875 85.705 9.90736 85.7859 9.93973C85.8182 9.9721 85.8587 9.98828 85.9072 9.98828C85.972 9.98828 86.0205 10.0045 86.0529 10.0368C86.1176 10.053 86.2147 10.0935 86.3442 10.1582C86.4575 10.1906 86.5626 10.2229 86.6597 10.2553C86.7568 10.2877 86.8216 10.3605 86.8539 10.4738C87.032 10.5223 87.1614 10.587 87.2423 10.668C87.3394 10.7489 87.4284 10.8136 87.5094 10.8622C87.5741 10.9107 87.6388 10.9835 87.7035 11.0806C87.7683 11.1615 87.8411 11.2263 87.922 11.2748C87.9382 11.3234 87.9544 11.3638 87.9706 11.3962C88.0029 11.4286 88.0272 11.4771 88.0434 11.5418C88.1729 11.6228 88.2861 11.7279 88.3832 11.8574C88.4803 11.9707 88.6179 12.0597 88.7959 12.1244C88.8444 12.2377 88.9011 12.3348 88.9658 12.4157C89.0305 12.4966 89.071 12.6099 89.0872 12.7556C89.1196 12.8041 89.1519 12.8608 89.1843 12.9255C89.2328 12.974 89.2814 13.0388 89.3299 13.1197C89.3461 13.152 89.3704 13.1925 89.4028 13.241C89.4513 13.2896 89.4837 13.3381 89.4999 13.3867C89.5808 13.5647 89.6698 13.7346 89.7669 13.8965C89.7992 13.945 89.8397 14.0016 89.8882 14.0664C89.953 14.1311 90.0015 14.2039 90.0339 14.2848C90.0501 14.3496 90.0582 14.4143 90.0582 14.479C90.0582 14.5438 90.0663 14.6085 90.0824 14.6732C90.1148 14.7542 90.1391 14.827 90.1553 14.8917C90.1714 14.9403 90.1876 14.9807 90.2038 15.0131C90.2362 15.1425 90.2443 15.272 90.2281 15.4015C90.2119 15.5148 90.2119 15.6361 90.2281 15.7656C90.2443 15.8627 90.2524 15.9679 90.2524 16.0812C90.2685 16.1783 90.2847 16.2754 90.3009 16.3724C90.3009 16.5019 90.309 16.6071 90.3252 16.688L90.398 16.955ZM86.9268 15.0131C86.9591 14.9807 86.9591 14.9241 86.9268 14.8432C86.9106 14.7622 86.8701 14.7056 86.8054 14.6732C86.773 14.56 86.7245 14.4952 86.6597 14.479C86.6112 14.4467 86.6112 14.3981 86.6597 14.3334C86.6112 14.2848 86.5465 14.2444 86.4655 14.212C86.3846 14.1797 86.3523 14.1149 86.3685 14.0178C86.2875 14.034 86.2309 14.0178 86.1985 13.9693C86.1824 13.9046 86.1581 13.8641 86.1257 13.8479C86.0124 13.767 85.9396 13.6861 85.9072 13.6052C85.8749 13.5243 85.8263 13.4595 85.7616 13.411C85.713 13.3786 85.6564 13.3786 85.5917 13.411C85.5431 13.4272 85.5188 13.3867 85.5188 13.2896C85.2599 13.3058 85.0576 13.2653 84.912 13.1682C84.7825 13.0549 84.6531 12.9336 84.5236 12.8041C84.378 12.8365 84.2161 12.8446 84.0381 12.8284C83.8601 12.8122 83.6902 12.8122 83.5283 12.8284C83.3989 12.7475 83.2775 12.7151 83.1642 12.7313C83.0671 12.7313 82.9458 12.707 82.8001 12.6585C82.7354 12.6423 82.6949 12.6099 82.6787 12.5614C82.6787 12.4966 82.6383 12.4643 82.5574 12.4643C82.4441 12.5128 82.3308 12.5128 82.2175 12.4643C82.1204 12.4157 82.0072 12.3834 81.8777 12.3672C81.7482 12.4481 81.6107 12.5047 81.465 12.5371C81.3194 12.5533 81.1737 12.5856 81.0281 12.6342C80.9472 12.6666 80.8582 12.7475 80.7611 12.8769C80.664 12.9902 80.5911 13.0711 80.5426 13.1197C80.4293 13.2491 80.316 13.3786 80.2028 13.5081C80.0895 13.6375 79.9843 13.767 79.8872 13.8965C79.9034 13.9936 79.8953 14.0745 79.8629 14.1392C79.8305 14.1878 79.8225 14.2525 79.8386 14.3334C79.7254 14.4143 79.6444 14.5438 79.5959 14.7218C79.5635 14.8836 79.5312 15.0454 79.4988 15.2073C79.6121 15.2235 79.7415 15.2235 79.8872 15.2073C80.0328 15.1911 80.1866 15.1749 80.3484 15.1587C80.3969 15.1425 80.4455 15.1345 80.494 15.1345C80.5588 15.1345 80.6154 15.1345 80.664 15.1345C80.9067 15.0859 81.1171 15.0697 81.2951 15.0859C81.4731 15.0859 81.6349 15.0778 81.7806 15.0616C81.9424 15.0616 82.0962 15.0535 82.2418 15.0374C82.4036 15.005 82.5493 15.0212 82.6787 15.0859C82.8568 15.005 83.059 14.9726 83.2856 14.9888C83.5283 15.005 83.7225 15.0212 83.8682 15.0374C83.9977 15.0374 84.0705 15.0293 84.0867 15.0131C84.1028 14.9969 84.119 14.9969 84.1352 15.0131C84.6045 14.9807 85.0657 14.9969 85.5188 15.0616C85.9882 15.1102 86.4575 15.094 86.9268 15.0131Z" fill="white"/>
<path d="M76.5344 24.2513C76.5344 24.3646 76.5021 24.4617 76.4373 24.5426C76.3726 24.6235 76.324 24.7044 76.2917 24.7853C76.2108 24.8015 76.1298 24.8096 76.0489 24.8096C75.968 24.8258 75.8871 24.8258 75.8062 24.8096C75.7415 24.8096 75.6767 24.7934 75.612 24.761C75.5634 24.7449 75.5068 24.7206 75.4421 24.6882C75.3612 24.672 75.2883 24.6559 75.2236 24.6397C75.1751 24.6397 75.1265 24.6154 75.078 24.5668C74.9809 24.6154 74.8919 24.6316 74.8109 24.6154C74.73 24.5992 74.641 24.6073 74.5439 24.6397C74.4954 24.672 74.4387 24.6963 74.374 24.7125C74.3254 24.7287 74.2769 24.753 74.2284 24.7853C74.1474 24.8015 74.0908 24.8258 74.0584 24.8581C74.0422 24.8905 73.9937 24.9067 73.9128 24.9067C73.7024 24.9067 73.5487 24.842 73.4516 24.7125C73.3545 24.583 73.2088 24.494 73.0146 24.4455C72.9337 24.3484 72.8447 24.2513 72.7476 24.1542C72.6505 24.0733 72.5372 23.9924 72.4078 23.9114C72.3754 23.8791 72.3511 23.8386 72.3349 23.7901C72.3349 23.7415 72.3188 23.7011 72.2864 23.6687C72.0437 23.4421 71.8333 23.2479 71.6553 23.0861C71.4773 22.9081 71.3073 22.7463 71.1455 22.6006C71.0322 22.4712 70.9189 22.3498 70.8057 22.2365C70.7086 22.1232 70.6115 21.9857 70.5144 21.8238C70.4658 21.7753 70.4092 21.7348 70.3444 21.7025C70.2959 21.6701 70.2878 21.6135 70.3202 21.5325C70.2393 21.5325 70.1745 21.5083 70.126 21.4597C70.0936 21.395 70.0451 21.3384 69.9803 21.2898C69.8994 21.1927 69.8266 21.128 69.7619 21.0956C69.6971 21.0471 69.6729 20.9823 69.689 20.9014C69.511 20.8367 69.3735 20.7396 69.2764 20.6101C69.1955 20.4645 69.0741 20.3512 68.9123 20.2703C68.8961 20.2055 68.8718 20.157 68.8394 20.1246C68.8232 20.0923 68.799 20.0356 68.7666 19.9547C68.6857 19.9385 68.621 19.9062 68.5724 19.8576C68.54 19.8091 68.4672 19.7767 68.3539 19.7605C68.3539 19.6796 68.3216 19.623 68.2568 19.5906C68.2083 19.5582 68.1678 19.5259 68.1355 19.4935C68.1031 19.4611 68.0627 19.4207 68.0141 19.3721C67.9656 19.3236 67.917 19.2912 67.8685 19.275C67.8037 19.3236 67.7795 19.3883 67.7956 19.4692C67.8118 19.5501 67.8199 19.6311 67.8199 19.712C67.7875 19.9223 67.7795 20.0842 67.7956 20.1975C67.8118 20.3107 67.7714 20.3916 67.6743 20.4402C67.7066 20.6668 67.7309 20.9176 67.7471 21.1927C67.7795 21.4678 67.7875 21.7672 67.7714 22.0909C67.739 22.2365 67.7309 22.3498 67.7471 22.4307C67.7795 22.4954 67.7956 22.5521 67.7956 22.6006C67.7633 22.7301 67.7552 22.8191 67.7714 22.8676C67.8037 22.9162 67.8199 22.9486 67.8199 22.9647C67.8199 23.078 67.828 23.1589 67.8442 23.2075C67.8765 23.256 67.8927 23.2884 67.8927 23.3046C67.8927 23.4179 67.9008 23.5069 67.917 23.5716C67.9494 23.6201 67.9736 23.6687 67.9898 23.7172C67.9575 23.7982 67.917 23.8548 67.8685 23.8872C67.8199 23.9357 67.7795 24.0004 67.7471 24.0814C67.7471 24.1785 67.7714 24.2432 67.8199 24.2756C67.8685 24.3079 67.9089 24.3403 67.9413 24.3727C68.006 24.5507 68.006 24.7044 67.9413 24.8339C67.8765 24.9795 67.7795 25.0928 67.65 25.1737C67.3749 25.1737 67.1564 25.1252 66.9946 25.0281C66.8327 24.931 66.6547 24.85 66.4605 24.7853C66.1854 24.7853 65.9346 24.7853 65.708 24.7853C65.4815 24.7853 65.2387 24.761 64.9798 24.7125C64.9474 24.6316 64.907 24.5588 64.8584 24.494C64.8099 24.4455 64.8018 24.3565 64.8342 24.227C64.8503 24.1785 64.8503 24.1299 64.8342 24.0814C64.8342 24.0328 64.8342 23.9681 64.8342 23.8872C64.8665 23.7739 64.8665 23.693 64.8342 23.6444C64.818 23.6121 64.8099 23.5797 64.8099 23.5473C64.7613 23.2722 64.7532 23.0295 64.7856 22.8191C64.818 22.5925 64.8503 22.3417 64.8827 22.0666C64.8989 21.8886 64.8989 21.7591 64.8827 21.6782C64.8665 21.5811 64.8503 21.4921 64.8342 21.4112C64.8342 21.3303 64.8342 21.2493 64.8342 21.1684C64.8503 21.0875 64.8584 21.0066 64.8584 20.9257C64.8422 20.8286 64.8422 20.7558 64.8584 20.7072C64.8908 20.6425 64.907 20.5939 64.907 20.5616C64.907 20.4968 64.8908 20.4321 64.8584 20.3674C64.8261 20.3026 64.8018 20.2298 64.7856 20.1489C64.7856 20.0842 64.7775 20.0113 64.7613 19.9304C64.7613 19.8495 64.7613 19.7767 64.7613 19.712C64.7613 19.5825 64.7532 19.4611 64.7371 19.3478C64.7371 19.2184 64.7371 19.097 64.7371 18.9837C64.7371 18.7895 64.7451 18.563 64.7613 18.3041C64.7775 18.0451 64.7775 17.7943 64.7613 17.5515C64.729 17.4383 64.7128 17.3573 64.7128 17.3088C64.729 17.2603 64.7371 17.2117 64.7371 17.1632C64.7371 17.0661 64.7209 16.9366 64.6885 16.7748C64.6723 16.6129 64.7047 16.4916 64.7856 16.4106C64.8018 16.3621 64.7937 16.3135 64.7613 16.265C64.7451 16.2165 64.7371 16.1679 64.7371 16.1194C64.7209 16.0546 64.7209 15.9818 64.7371 15.9009C64.7532 15.8038 64.7694 15.7148 64.7856 15.6339C64.7856 15.5853 64.7775 15.5368 64.7613 15.4882C64.7613 15.4235 64.7694 15.3668 64.7856 15.3183C64.7694 15.1888 64.7775 15.0836 64.8099 15.0027C64.8422 14.9218 64.8665 14.8247 64.8827 14.7114C64.8827 14.6305 64.8746 14.5577 64.8584 14.493C64.8422 14.4282 64.8342 14.3554 64.8342 14.2745C64.8342 14.2259 64.8422 14.1693 64.8584 14.1046C64.8746 14.0398 64.8827 13.9832 64.8827 13.9347C64.9151 13.7728 64.9313 13.6434 64.9313 13.5463C64.9313 13.4654 64.9151 13.3925 64.8827 13.3278C64.8665 13.2469 64.8584 13.166 64.8584 13.0851C64.8908 12.9556 64.907 12.8585 64.907 12.7938C64.8746 12.6157 64.8584 12.4944 64.8584 12.4296C64.8584 12.3649 64.8584 12.3083 64.8584 12.2597C64.8422 12.2274 64.818 12.1869 64.7856 12.1384C64.7532 12.0736 64.7371 12.0089 64.7371 11.9442C64.7694 11.8632 64.7775 11.75 64.7613 11.6043C64.7613 11.4425 64.7451 11.3454 64.7128 11.313C64.7128 11.2968 64.7128 11.2483 64.7128 11.1674C64.7128 11.0703 64.7128 10.9732 64.7128 10.8761C64.7128 10.7628 64.7128 10.6657 64.7128 10.5848C64.729 10.4877 64.7371 10.423 64.7371 10.3906C64.7371 10.2288 64.7371 10.075 64.7371 9.92938C64.7532 9.76755 64.7613 9.60572 64.7613 9.44389C64.7451 9.28206 64.7128 9.12832 64.6642 8.98268C64.6319 8.82085 64.6157 8.65902 64.6157 8.49719C64.6157 8.40009 64.6238 8.30299 64.64 8.2059C64.6723 8.09262 64.6966 7.98743 64.7128 7.89033C64.7128 7.74468 64.6966 7.64758 64.6642 7.59904C64.6481 7.5343 64.64 7.48576 64.64 7.45339C64.6238 7.38866 64.6157 7.32393 64.6157 7.25919C64.6157 7.17828 64.6157 7.09736 64.6157 7.01645C64.5995 6.93554 64.5833 6.8708 64.5671 6.82225C64.551 6.75752 64.5429 6.69279 64.5429 6.62806C64.5752 6.48241 64.5833 6.36104 64.5671 6.26394C64.551 6.15066 64.559 6.05356 64.5914 5.97265C64.559 5.90792 64.5105 5.89983 64.4458 5.94838C64.3972 5.99692 64.3568 5.98883 64.3244 5.9241C64.2435 5.71372 64.2273 5.57617 64.2758 5.51144C64.3406 5.4467 64.3568 5.34152 64.3244 5.19587C64.4539 5.1635 64.5752 5.13923 64.6885 5.12305C64.818 5.10686 64.9474 5.13923 65.0769 5.22014C65.2064 5.17159 65.3358 5.13114 65.4653 5.09877C65.5948 5.05022 65.7485 5.04213 65.9265 5.0745C65.9589 5.05831 65.9912 5.04213 66.0236 5.02595C66.0721 5.00977 66.1207 4.98549 66.1692 4.95312C66.3958 4.98549 66.5981 5.00977 66.7761 5.02595C66.9541 5.02595 67.1807 5.02595 67.4558 5.02595C67.5205 5.05831 67.5691 5.10686 67.6014 5.17159C67.6338 5.23633 67.6743 5.29297 67.7228 5.34152C67.6904 5.4548 67.6824 5.55998 67.6985 5.65708C67.7147 5.738 67.7309 5.84319 67.7471 5.97265C67.7795 6.10211 67.7956 6.23158 67.7956 6.36104C67.7309 6.53905 67.6985 6.69279 67.6985 6.82225C67.6985 6.93554 67.6985 7.02454 67.6985 7.08927C67.6662 7.46148 67.6581 7.76896 67.6743 8.0117C67.7066 8.25444 67.739 8.49719 67.7714 8.73993C67.8037 8.82085 67.8199 8.94222 67.8199 9.10405C67.8361 9.2497 67.8442 9.38725 67.8442 9.51671C67.8442 9.61381 67.828 9.71091 67.7956 9.80801C67.7795 9.88892 67.7795 9.96984 67.7956 10.0508C67.8118 10.2126 67.8523 10.3744 67.917 10.5362C67.9979 10.6981 67.9979 10.8437 67.917 10.9732C67.9656 11.0865 68.0141 11.224 68.0627 11.3858C68.1112 11.5477 68.095 11.6933 68.0141 11.8228C68.095 12.0008 68.1193 12.106 68.0869 12.1384C68.0707 12.1545 68.0627 12.1788 68.0627 12.2112C68.1436 12.3083 68.1678 12.4539 68.1355 12.6481C68.1031 12.8423 68.0788 13.0203 68.0627 13.1821C68.095 13.3116 68.1031 13.4006 68.0869 13.4492C68.0707 13.4815 68.0627 13.5139 68.0627 13.5463C68.0627 13.6272 68.0788 13.7162 68.1112 13.8133C68.1597 13.8942 68.1678 13.9832 68.1355 14.0803C68.2488 14.0318 68.3459 13.9427 68.4268 13.8133C68.5886 13.6838 68.7262 13.5544 68.8394 13.4249C68.9689 13.2792 69.0903 13.1336 69.2035 12.988C69.333 12.907 69.422 12.8423 69.4706 12.7938C69.5353 12.729 69.5838 12.6805 69.6162 12.6481C69.7133 12.5348 69.778 12.4701 69.8104 12.4539C69.859 12.4377 69.8994 12.4135 69.9318 12.3811C69.9803 12.3487 70.0127 12.3245 70.0289 12.3083C70.0612 12.2759 70.126 12.2597 70.2231 12.2597C70.3849 12.1626 70.4901 12.0817 70.5386 12.017C70.6034 11.9361 70.6924 11.8956 70.8057 11.8956C70.838 11.7661 70.8866 11.6771 70.9513 11.6286C71.0322 11.58 71.0889 11.5072 71.1212 11.4101C71.1536 11.3778 71.186 11.3535 71.2183 11.3373C71.2507 11.3049 71.2992 11.2887 71.364 11.2887C71.4287 11.2078 71.5096 11.1188 71.6067 11.0217C71.72 10.9246 71.8333 10.8113 71.9466 10.6819C72.076 10.5524 72.165 10.4553 72.2136 10.3906C72.2621 10.3097 72.3188 10.2449 72.3835 10.1964C72.4968 10.1155 72.5615 10.0588 72.5777 10.0265C72.5939 9.99411 72.6181 9.96174 72.6505 9.92938C72.7314 9.84846 72.8447 9.76755 72.9904 9.68664C73.136 9.58954 73.2978 9.6219 73.4758 9.78373C73.6053 9.75137 73.7429 9.75946 73.8885 9.80801C74.0503 9.85655 74.196 9.89701 74.3254 9.92938C74.4387 9.96174 74.5439 9.98602 74.641 10.0022C74.7543 10.0184 74.8352 10.075 74.8838 10.1721C75.1589 10.0588 75.4583 10.0669 75.7819 10.1964C75.8143 10.2773 75.8466 10.3663 75.879 10.4634C75.9276 10.5443 75.9357 10.6738 75.9033 10.8518C75.8547 10.8842 75.8062 10.9327 75.7576 10.9975C75.7253 11.046 75.6524 11.0703 75.5392 11.0703C75.4906 11.1026 75.4502 11.1512 75.4178 11.2159C75.3854 11.2645 75.345 11.3049 75.2964 11.3373C75.1993 11.3858 75.1265 11.4425 75.078 11.5072C75.0294 11.5558 74.9809 11.6043 74.9323 11.6529C74.8999 11.6852 74.8514 11.7176 74.7867 11.75C74.7219 11.7661 74.6572 11.7985 74.5925 11.8471C74.4954 11.9442 74.4306 12.0089 74.3983 12.0413C74.3821 12.0736 74.3659 12.0979 74.3497 12.1141C74.2688 12.2112 74.2041 12.2678 74.1555 12.284C74.107 12.284 74.0827 12.2921 74.0827 12.3083C74.0018 12.4701 73.9128 12.6157 73.8157 12.7452C73.7186 12.8585 73.5972 12.9394 73.4516 12.988C73.3868 13.0689 73.3221 13.1579 73.2574 13.255C73.1926 13.3359 73.1198 13.4006 73.0389 13.4492C73.0065 13.4815 72.9661 13.5139 72.9175 13.5463C72.869 13.5624 72.8285 13.611 72.7962 13.6919C72.6505 13.8699 72.513 13.9913 72.3835 14.056C72.2702 14.1208 72.1893 14.2179 72.1407 14.3473C72.0275 14.4768 71.9142 14.5658 71.8009 14.6143C71.7038 14.6629 71.6148 14.7276 71.5339 14.8085C71.453 14.9865 71.3397 15.1322 71.194 15.2455C71.0484 15.3588 70.9189 15.4801 70.8057 15.6096C70.6276 15.6743 70.5305 15.7471 70.5144 15.8281C70.4982 15.8928 70.4658 15.9656 70.4173 16.0465C70.3849 16.0951 70.3364 16.1436 70.2716 16.1922C70.2069 16.2245 70.1502 16.265 70.1017 16.3135C70.0532 16.3459 70.0127 16.3864 69.9803 16.4349C69.9641 16.4835 69.9318 16.5239 69.8832 16.5563C69.948 16.7505 70.0451 16.9042 70.1745 17.0175C70.304 17.1308 70.4092 17.2764 70.4901 17.4544C70.6357 17.5839 70.7895 17.6972 70.9513 17.7943C71.1131 17.8914 71.275 18.0128 71.4368 18.1584C71.5663 18.2231 71.6795 18.304 71.7766 18.4011C71.8414 18.4659 71.8899 18.5387 71.9223 18.6196C71.9708 18.7005 72.0275 18.7734 72.0922 18.8381C72.1408 18.919 72.1893 18.9918 72.2378 19.0566C72.3026 19.1051 72.3511 19.1698 72.3835 19.2508C72.513 19.3317 72.6262 19.4207 72.7233 19.5178C72.8204 19.6149 72.9175 19.7201 73.0146 19.8333C73.0955 19.8981 73.1765 19.979 73.2574 20.0761C73.3383 20.157 73.403 20.2541 73.4516 20.3674C73.5972 20.4321 73.7186 20.5211 73.8157 20.6344C73.929 20.7315 74.0342 20.8367 74.1313 20.95C74.2284 21.0632 74.3254 21.1765 74.4225 21.2898C74.5196 21.4031 74.641 21.4921 74.7867 21.5568C74.819 21.7187 74.8838 21.84 74.9809 21.9209C75.078 22.0019 75.1831 22.0909 75.2964 22.188C75.3126 22.3012 75.345 22.4064 75.3935 22.5035C75.4421 22.5844 75.4825 22.6734 75.5149 22.7705C75.6929 22.8838 75.8143 22.9971 75.879 23.1104C75.9437 23.2075 76.0327 23.2722 76.146 23.3046C76.1622 23.4179 76.2189 23.4988 76.316 23.5473C76.2998 23.6282 76.2917 23.6849 76.2917 23.7172C76.3079 23.7658 76.324 23.8143 76.3402 23.8629C76.3726 23.9438 76.405 24.0085 76.4373 24.0571C76.4859 24.1056 76.5182 24.1704 76.5344 24.2513Z" fill="white"/>
<path d="M61.5939 10.1822C61.5939 10.2307 61.5696 10.2955 61.521 10.3764C61.4887 10.4573 61.4725 10.5301 61.4725 10.5949C61.4887 10.7081 61.4887 10.781 61.4725 10.8133C61.4725 10.8457 61.4725 10.8781 61.4725 10.9104C61.4887 10.9913 61.4887 11.048 61.4725 11.0803C61.4563 11.1127 61.4563 11.1451 61.4725 11.1774C61.4887 11.2745 61.4806 11.3474 61.4482 11.3959C61.432 11.4445 61.4239 11.4849 61.4239 11.5173C61.4078 11.5658 61.4078 11.6225 61.4239 11.6872C61.4401 11.7358 61.4482 11.7843 61.4482 11.8329C61.4159 11.9623 61.3916 12.0675 61.3754 12.1484C61.3754 12.2132 61.3673 12.2617 61.3511 12.2941C61.3511 12.375 61.343 12.464 61.3268 12.5611C61.3268 12.6582 61.3349 12.7634 61.3511 12.8767C61.3511 12.909 61.3592 12.9495 61.3754 12.998C61.4078 13.0466 61.4239 13.0951 61.4239 13.1437C61.4401 13.3217 61.432 13.5078 61.3997 13.702C61.3835 13.8962 61.3835 14.0823 61.3997 14.2603C61.3997 14.3412 61.4078 14.414 61.4239 14.4788C61.4401 14.5435 61.4401 14.6163 61.4239 14.6972C61.4239 14.8105 61.4078 14.9157 61.3754 15.0128C61.343 15.1099 61.3188 15.2232 61.3026 15.3526C61.3188 15.4497 61.3188 15.563 61.3026 15.6925C61.2864 15.8058 61.3026 15.9029 61.3511 15.9838C61.3188 16.0971 61.2783 16.1942 61.2298 16.2751C61.2621 16.5016 61.254 16.7201 61.2055 16.9305C61.1731 17.1409 61.1569 17.3593 61.1569 17.5859C61.1731 17.6668 61.1893 17.7477 61.2055 17.8286C61.2217 17.8934 61.2298 17.9662 61.2298 18.0471C61.2298 18.0795 61.2217 18.1199 61.2055 18.1685C61.1893 18.217 61.1812 18.2656 61.1812 18.3141C61.2136 18.4598 61.2136 18.565 61.1812 18.6297C61.165 18.6944 61.1488 18.743 61.1327 18.7753C61.1165 18.9533 61.1084 19.099 61.1084 19.2123C61.1084 19.3094 61.0679 19.4227 60.987 19.5521C60.9385 19.633 60.9304 19.7625 60.9627 19.9405C60.9951 20.1023 60.9708 20.2399 60.8899 20.3532C60.9223 20.4503 60.9304 20.5393 60.9142 20.6202C60.9142 20.7011 60.9142 20.8063 60.9142 20.9358C60.9304 21.1623 60.9223 21.3241 60.8899 21.4212C60.8737 21.5022 60.8656 21.5831 60.8656 21.664C60.8495 21.8582 60.8575 22.0443 60.8899 22.2223C60.9223 22.3841 60.9466 22.546 60.9627 22.7078C60.898 22.8696 60.9142 23.0072 61.0113 23.1205C61.1084 23.2337 61.1569 23.3551 61.1569 23.4846C61.1246 23.5655 61.1003 23.6302 61.0841 23.6788C61.0679 23.7435 61.0598 23.784 61.0598 23.8001C60.9789 23.8325 60.9061 23.8649 60.8414 23.8972C60.7766 23.9458 60.7119 23.9781 60.6472 23.9943C60.5986 23.9943 60.5501 23.9862 60.5015 23.9701C60.453 23.9539 60.3963 23.9458 60.3316 23.9458C60.2669 23.9296 60.186 23.9296 60.0889 23.9458C60.0079 23.9781 59.927 23.9943 59.8461 23.9943C59.7652 24.0105 59.6681 24.0105 59.5548 23.9943C59.4577 23.9943 59.3687 24.0105 59.2878 24.0429C59.1907 24.0591 59.0936 24.0914 58.9965 24.14C58.9156 24.1885 58.8347 24.2128 58.7538 24.2128C58.6405 24.3261 58.5434 24.3746 58.4625 24.3584C58.3816 24.3584 58.3249 24.3665 58.2926 24.3827C58.1955 24.3018 58.1145 24.1723 58.0498 23.9943C57.9851 23.8163 58.0013 23.6788 58.0984 23.5817C58.0174 23.3713 58.0013 23.1366 58.0498 22.8777C58.0984 22.6188 58.0984 22.3599 58.0498 22.1009C57.9203 22.1495 57.799 22.2142 57.6857 22.2951C57.5886 22.376 57.4915 22.465 57.3944 22.5621C57.3458 22.5945 57.3054 22.6431 57.273 22.7078C57.2407 22.7563 57.1921 22.7968 57.1274 22.8292C57.0626 22.8615 56.9898 22.8939 56.9089 22.9263C56.828 22.9586 56.7714 22.9991 56.739 23.0476C56.6581 23.08 56.5691 23.0962 56.472 23.0962C56.3911 23.0962 56.3101 23.1124 56.2292 23.1447C56.1159 23.1771 56.0027 23.2095 55.8894 23.2418C55.7761 23.258 55.6466 23.2823 55.501 23.3146C55.4039 23.347 55.2744 23.3875 55.1126 23.436C54.9508 23.4846 54.7809 23.4927 54.6028 23.4603C54.4734 23.4279 54.3844 23.4279 54.3358 23.4603C54.3035 23.4765 54.263 23.4846 54.2145 23.4846C54.085 23.5169 53.9474 23.5008 53.8018 23.436C53.7694 23.5008 53.6885 23.5169 53.559 23.4846C53.4458 23.4522 53.3568 23.4198 53.292 23.3875C53.1626 23.436 53.0412 23.4441 52.9279 23.4117C52.8146 23.3794 52.6933 23.3551 52.5638 23.3389C52.4829 23.3389 52.4343 23.3146 52.4181 23.2661C52.4181 23.2175 52.3858 23.1852 52.321 23.169C51.965 23.1852 51.5847 23.1447 51.1801 23.0476C51.1478 22.9829 51.0992 22.9343 51.0345 22.902C50.986 22.8696 50.9536 22.813 50.9374 22.7321C50.8565 22.7482 50.7999 22.7321 50.7675 22.6835C50.7513 22.635 50.7028 22.6107 50.6218 22.6107C50.5895 22.5298 50.5409 22.4731 50.4762 22.4408C50.4276 22.3922 50.3872 22.3437 50.3548 22.2951C50.2739 22.2951 50.2092 22.2789 50.1606 22.2466C50.1283 22.2142 50.0716 22.198 49.9907 22.198C49.8936 22.0686 49.837 21.9957 49.8208 21.9796C49.8046 21.9634 49.7884 21.9472 49.7722 21.931C49.6913 21.8663 49.6266 21.8339 49.578 21.8339C49.5457 21.8339 49.5214 21.8258 49.5052 21.8096C49.4243 21.7287 49.3596 21.664 49.311 21.6154C49.2625 21.5669 49.2139 21.5103 49.1654 21.4455C49.0683 21.3161 48.9874 21.2351 48.9226 21.2028C48.8579 21.1542 48.8336 21.0733 48.8498 20.96C48.7042 20.8629 48.6071 20.7982 48.5585 20.7658C48.5261 20.7173 48.4938 20.6687 48.4614 20.6202C48.3967 20.5393 48.3562 20.4584 48.34 20.3774C48.3239 20.2965 48.2834 20.2399 48.2187 20.2075C48.1054 20.0295 48.0164 19.892 47.9517 19.7949C47.8869 19.6816 47.7979 19.6088 47.6846 19.5764C47.717 19.4955 47.717 19.4469 47.6846 19.4307C47.6523 19.4146 47.6442 19.3741 47.6604 19.3094C47.5309 19.1961 47.4338 19.0585 47.3691 18.8967C47.3043 18.7349 47.2477 18.565 47.1991 18.3869C47.1506 18.1927 47.1101 18.0066 47.0778 17.8286C47.0454 17.6344 46.9969 17.4483 46.9321 17.2703C46.9483 17.0438 46.9564 16.8091 46.9564 16.5664C46.9564 16.3074 46.9969 16.0809 47.0778 15.8867C47.1263 15.7734 47.1506 15.6763 47.1506 15.5954C47.1506 15.5145 47.1587 15.4336 47.1749 15.3526C47.1911 15.2717 47.1991 15.1989 47.1991 15.1342C47.2153 15.0533 47.2315 14.9723 47.2477 14.8914C47.2962 14.6325 47.3367 14.4383 47.3691 14.3088C47.4176 14.1794 47.4823 14.0661 47.5633 13.969C47.5309 13.8557 47.5309 13.7586 47.5633 13.6777C47.5956 13.5806 47.6361 13.4997 47.6846 13.435C47.7332 13.354 47.7817 13.2731 47.8303 13.1922C47.8788 13.1113 47.9031 13.0223 47.9031 12.9252C47.984 12.8605 48.0407 12.7876 48.073 12.7067C48.1216 12.6096 48.1782 12.5206 48.2429 12.4397C48.2753 12.375 48.3158 12.3022 48.3643 12.2212C48.4129 12.1403 48.4614 12.0594 48.51 11.9785C48.5423 11.9299 48.5828 11.8814 48.6313 11.8329C48.6961 11.7843 48.7203 11.7196 48.7042 11.6387C48.7527 11.6063 48.7932 11.5739 48.8255 11.5416C48.8579 11.5092 48.9145 11.4768 48.9955 11.4445C49.1249 11.2503 49.2301 11.0803 49.311 10.9347C49.3919 10.7729 49.489 10.6272 49.6023 10.4978C49.667 10.433 49.7237 10.3845 49.7722 10.3521C49.837 10.3036 49.9017 10.255 49.9664 10.2065C49.9988 10.1256 50.0554 10.077 50.1364 10.0608C50.2334 10.0285 50.2901 9.97181 50.3063 9.8909C50.4681 9.85853 50.6299 9.82617 50.7918 9.7938C50.9536 9.74525 51.0992 9.67243 51.2287 9.57533C51.3258 9.55915 51.4229 9.55106 51.52 9.55106C51.6333 9.53487 51.7304 9.49442 51.8113 9.42969C51.9731 9.46205 52.1026 9.45396 52.1997 9.40541C52.2968 9.34068 52.3858 9.27595 52.4667 9.21122C52.7256 9.21122 52.9684 9.21122 53.1949 9.21122C53.4377 9.19503 53.6966 9.19503 53.9717 9.21122C54.1012 9.21122 54.2225 9.20312 54.3358 9.18694C54.4653 9.17076 54.5786 9.17076 54.6757 9.18694C54.7566 9.18694 54.8294 9.18694 54.8941 9.18694C54.9589 9.18694 55.0155 9.21122 55.0641 9.25977C55.2097 9.19503 55.3473 9.20313 55.4767 9.28404C55.5091 9.30022 55.5495 9.30831 55.5981 9.30831C55.6466 9.29213 55.7114 9.30022 55.7923 9.33259C55.9541 9.38114 56.0593 9.40541 56.1079 9.40541C56.1726 9.40541 56.2211 9.40541 56.2535 9.40541C56.383 9.47014 56.4639 9.5106 56.4962 9.52678C56.5286 9.54297 56.5852 9.58342 56.6662 9.64816C56.8765 9.77762 57.0384 9.87472 57.1517 9.93945C57.2811 9.988 57.4025 10.0527 57.5158 10.1336C57.5967 10.2307 57.6533 10.2874 57.6857 10.3036C57.7181 10.3197 57.7504 10.344 57.7828 10.3764C57.8152 10.4088 57.8475 10.4492 57.8799 10.4978C57.9123 10.5301 57.9527 10.5706 58.0013 10.6191C58.0336 10.6839 58.0822 10.7405 58.1469 10.7891C58.2116 10.8376 58.2764 10.8942 58.3411 10.959C58.3735 10.9913 58.3977 11.0318 58.4139 11.0803C58.4463 11.1289 58.4867 11.1694 58.5353 11.2017C58.5677 11.2341 58.6162 11.2826 58.6809 11.3474C58.7619 11.3959 58.8023 11.4606 58.8023 11.5416C58.867 11.315 58.8832 11.0803 58.8509 10.8376C58.8185 10.5787 58.7699 10.3602 58.7052 10.1822C58.6567 10.0851 58.6081 10.0123 58.5596 9.96372C58.511 9.89899 58.511 9.7938 58.5596 9.64816C58.5758 9.58342 58.6081 9.5106 58.6567 9.42969C58.7214 9.34877 58.7699 9.29213 58.8023 9.25977C58.8023 9.27595 58.859 9.29213 58.9722 9.30831C59.0855 9.30831 59.1826 9.30831 59.2635 9.30831C59.3444 9.3245 59.4092 9.34068 59.4577 9.35686C59.5225 9.35686 59.5872 9.35686 59.6519 9.35686C59.8299 9.35686 60.0484 9.36495 60.3073 9.38114C60.5663 9.39732 60.7847 9.43778 60.9627 9.50251C61.0922 9.47014 61.1974 9.47823 61.2783 9.52678C61.3592 9.55915 61.4482 9.59152 61.5453 9.62388C61.5615 9.68861 61.5615 9.74525 61.5453 9.7938C61.5453 9.82617 61.5534 9.87472 61.5696 9.93945L61.5939 10.1822ZM58.0741 16.0081C58.0417 15.9595 58.0174 15.8948 58.0013 15.8139C58.0013 15.7168 58.0013 15.6278 58.0013 15.5468C57.9689 15.4983 57.9284 15.4659 57.8799 15.4497C57.8475 15.4174 57.8152 15.385 57.7828 15.3526C57.7828 15.2232 57.7585 15.118 57.71 15.0371C57.6776 14.9562 57.6533 14.8752 57.6371 14.7943C57.6695 14.6649 57.6614 14.5759 57.6129 14.5273C57.5805 14.4626 57.5562 14.3978 57.54 14.3331C57.5077 14.2522 57.4915 14.1713 57.4915 14.0904C57.4915 13.9933 57.4834 13.8962 57.4672 13.7991C57.3863 13.7505 57.3378 13.702 57.3216 13.6534C57.3054 13.6049 57.2811 13.5644 57.2488 13.5321C57.1193 13.4026 57.0222 13.3055 56.9575 13.2408C56.8927 13.176 56.828 13.1113 56.7633 13.0466C56.6176 12.9009 56.4639 12.7957 56.302 12.731C56.1726 12.6501 56.0512 12.5854 55.9379 12.5368C55.8247 12.4721 55.7195 12.4154 55.6224 12.3669C55.5253 12.3183 55.4282 12.2941 55.3311 12.2941C55.234 12.2941 55.1207 12.2779 54.9912 12.2455C54.9103 12.2132 54.8456 12.1889 54.797 12.1727C54.7485 12.1403 54.6999 12.1161 54.6514 12.0999C54.619 12.0999 54.5705 12.108 54.5057 12.1241C54.441 12.1241 54.3763 12.1161 54.3115 12.0999C54.263 12.0999 54.2064 12.0918 54.1416 12.0756C54.0931 12.0432 54.0526 12.027 54.0203 12.027C53.8584 12.0594 53.7371 12.0594 53.6561 12.027C53.5752 11.9785 53.5186 11.9704 53.4862 12.0028C53.3244 12.019 53.2111 12.0513 53.1464 12.0999C53.0978 12.1484 53.0169 12.2051 52.9036 12.2698C52.758 12.3345 52.6609 12.3831 52.6123 12.4154C52.58 12.4316 52.5476 12.4478 52.5152 12.464C52.3534 12.5449 52.2401 12.6096 52.1754 12.6582C52.1107 12.7067 52.054 12.7472 52.0055 12.7796C51.8922 12.8281 51.8275 12.8686 51.8113 12.9009C51.7951 12.9171 51.7708 12.9252 51.7385 12.9252C51.7061 12.9737 51.6737 13.0142 51.6414 13.0466C51.609 13.0789 51.5766 13.1194 51.5443 13.1679C51.4472 13.2489 51.3663 13.3217 51.3015 13.3864C51.2368 13.435 51.1882 13.4754 51.1559 13.5078C51.0588 13.6049 50.9455 13.6777 50.816 13.7263C50.7999 13.9043 50.7432 14.0418 50.6461 14.1389C50.549 14.2198 50.5005 14.3493 50.5005 14.5273C50.4357 14.6082 50.3872 14.6891 50.3548 14.7701C50.3225 14.8348 50.2901 14.9076 50.2577 14.9885C50.2254 15.0856 50.2011 15.1908 50.1849 15.3041C50.1849 15.4012 50.1687 15.5145 50.1364 15.6439C50.104 15.741 50.0716 15.8219 50.0393 15.8867C50.0069 15.9514 49.9826 16.0242 49.9664 16.1051C49.9988 16.3317 49.9907 16.5016 49.9422 16.6149C49.9098 16.712 49.8855 16.8253 49.8693 16.9548C49.8693 17.0195 49.8774 17.0842 49.8936 17.1489C49.926 17.2137 49.9422 17.2865 49.9422 17.3674C49.9422 17.4969 49.9341 17.594 49.9179 17.6587C49.9017 17.7073 49.8936 17.7477 49.8936 17.7801C49.9098 17.8934 49.9422 17.9986 49.9907 18.0956C50.0554 18.1927 50.0716 18.306 50.0393 18.4355C50.1525 18.5164 50.2577 18.5973 50.3548 18.6782C50.4519 18.7591 50.5652 18.832 50.6947 18.8967C50.8079 19.0909 50.9455 19.2527 51.1073 19.3822C51.2692 19.5117 51.4229 19.6411 51.5685 19.7706C51.7142 19.9324 51.876 20.0457 52.054 20.1104C52.1997 20.1913 52.313 20.248 52.3939 20.2803C52.491 20.2965 52.58 20.3127 52.6609 20.3289C52.7094 20.3451 52.7661 20.3694 52.8308 20.4017C52.9117 20.4179 52.9684 20.4341 53.0007 20.4503C53.2758 20.4826 53.5267 20.5312 53.7532 20.5959C53.9798 20.6445 54.1821 20.6687 54.3601 20.6687C54.4086 20.6849 54.4653 20.693 54.53 20.693C54.5947 20.6768 54.6514 20.6606 54.6999 20.6445C54.7647 20.6445 54.8294 20.6445 54.8941 20.6445C54.975 20.6445 55.0398 20.6364 55.0883 20.6202C55.2178 20.5555 55.2987 20.5231 55.3311 20.5231C55.3634 20.5231 55.3958 20.515 55.4282 20.4988C55.4767 20.4826 55.5334 20.4584 55.5981 20.426C55.6628 20.3936 55.7276 20.4098 55.7923 20.4745C55.8408 20.3774 55.9056 20.2965 55.9865 20.2318C56.0836 20.1671 56.1726 20.1104 56.2535 20.0619C56.3344 19.9971 56.4072 19.9243 56.472 19.8434C56.5529 19.7625 56.6014 19.6573 56.6176 19.5278C56.6985 19.3984 56.7714 19.3094 56.8361 19.2608C56.9008 19.1961 56.9575 19.1314 57.006 19.0666C57.0384 19.0181 57.0626 18.9614 57.0788 18.8967C57.1112 18.8158 57.1436 18.7591 57.1759 18.7268C57.2568 18.5973 57.3135 18.4921 57.3458 18.4112C57.3944 18.3141 57.4591 18.2251 57.54 18.1442C57.5077 18.0633 57.5077 17.9905 57.54 17.9257C57.5886 17.8448 57.6291 17.772 57.6614 17.7073C57.7423 17.4807 57.799 17.2703 57.8313 17.0761C57.8637 16.8657 57.8799 16.623 57.8799 16.3479C57.9608 16.2346 58.0255 16.1213 58.0741 16.0081Z" fill="white"/>
<path d="M46.2996 23.6056C46.251 23.7027 46.1458 23.7998 45.984 23.8969C45.8545 23.9617 45.7655 24.0102 45.717 24.0426C45.6846 24.0911 45.6523 24.1154 45.6199 24.1154C45.4419 24.1478 45.3124 24.1235 45.2315 24.0426C45.0049 24.1073 44.7946 24.1316 44.6004 24.1154C44.4223 24.0992 44.2443 24.1154 44.0663 24.1639C43.9854 24.1801 43.9207 24.2044 43.8721 24.2368C43.8236 24.2853 43.7669 24.3258 43.7022 24.3581C43.6051 24.3905 43.5161 24.3986 43.4352 24.3824C43.3705 24.3824 43.2895 24.3824 43.1924 24.3824C43.1277 24.3339 43.0711 24.2691 43.0225 24.1882C42.9902 24.1235 42.9578 24.0507 42.9254 23.9698C42.796 23.8727 42.6989 23.7756 42.6341 23.6785C42.6018 23.6461 42.5694 23.6056 42.537 23.5571C42.5209 23.4924 42.4966 23.4438 42.4642 23.4114C42.3509 23.2658 42.2619 23.1282 42.1972 22.9988C42.1325 22.8531 42.0839 22.7318 42.0515 22.6347C42.003 22.5699 41.9464 22.5052 41.8816 22.4405C41.8331 22.3757 41.7845 22.3029 41.736 22.222C41.6874 22.1573 41.6308 22.0925 41.5661 22.0278C41.5013 21.9469 41.4528 21.8741 41.4204 21.8093C41.388 21.7446 41.3719 21.688 41.3719 21.6394C41.3719 21.5747 41.3557 21.5099 41.3233 21.4452C41.2748 21.3481 41.21 21.2591 41.1291 21.1782C41.0644 21.0973 41.0239 20.9921 41.0077 20.8626C40.943 20.7979 40.8783 20.7332 40.8136 20.6684C40.765 20.5875 40.6841 20.5309 40.5708 20.4985C40.5384 20.3852 40.4818 20.2962 40.4009 20.2315C40.3362 20.1506 40.2795 20.0454 40.231 19.9159C40.1986 19.8674 40.1501 19.7622 40.0853 19.6004C40.053 19.5518 40.0287 19.5033 40.0125 19.4547C40.0125 19.39 39.9963 19.3333 39.9639 19.2848C39.9154 19.2039 39.8426 19.1391 39.7455 19.0906C39.6646 19.042 39.6079 18.953 39.5756 18.8236C39.4461 18.8236 39.3571 18.7912 39.3085 18.7265C39.2762 18.6456 39.2034 18.597 39.0901 18.5808C39.0092 18.419 38.904 18.2734 38.7745 18.1439C38.6612 18.0144 38.556 17.8607 38.4589 17.6827C38.2324 17.5694 38.0301 17.4238 37.8521 17.2457C37.6741 17.0677 37.4637 16.914 37.2209 16.7845C37.1562 16.6389 37.0106 16.5499 36.784 16.5175C36.7031 16.6308 36.6707 16.7683 36.6869 16.9302C36.7031 17.0758 36.695 17.2215 36.6626 17.3671C36.6464 17.5451 36.6141 17.7231 36.5655 17.9012C36.5332 18.063 36.4927 18.2086 36.4442 18.3381C36.4118 18.419 36.4199 18.4756 36.4684 18.508C36.517 18.5242 36.5332 18.5727 36.517 18.6537C36.5008 18.7022 36.4765 18.7588 36.4442 18.8236C36.428 18.8883 36.428 18.953 36.4442 19.0178C36.4442 19.0987 36.4603 19.1796 36.4927 19.2605C36.5413 19.3252 36.5655 19.4143 36.5655 19.5275C36.5817 19.6408 36.5655 19.7865 36.517 19.9645C36.4846 20.1425 36.4603 20.2962 36.4442 20.4257C36.4603 20.5552 36.4603 20.6361 36.4442 20.6684C36.4442 20.7008 36.4442 20.7332 36.4442 20.7655C36.4442 20.895 36.4442 21.0083 36.4442 21.1054C36.4442 21.2025 36.4361 21.3077 36.4199 21.4209C36.4361 21.599 36.428 21.7365 36.3956 21.8336C36.3632 21.9145 36.339 21.9954 36.3228 22.0764C36.3552 22.1896 36.3632 22.2544 36.3471 22.2705C36.3309 22.2867 36.3228 22.311 36.3228 22.3434C36.3228 22.3919 36.3309 22.4405 36.3471 22.489C36.3632 22.5376 36.3632 22.578 36.3471 22.6104C36.3309 22.7884 36.2985 22.926 36.25 23.0231C36.2176 23.1201 36.2176 23.2577 36.25 23.4357C36.2823 23.549 36.3066 23.6218 36.3228 23.6542C36.339 23.7027 36.339 23.7432 36.3228 23.7756C36.3066 23.8888 36.25 23.9859 36.1529 24.0669C36.0558 24.1478 36.0072 24.2368 36.0072 24.3339C35.813 24.3177 35.635 24.3339 35.4732 24.3824C35.3275 24.431 35.1819 24.4148 35.0362 24.3339C34.923 24.3662 34.7854 24.3986 34.6236 24.431C34.4618 24.4633 34.308 24.4714 34.1624 24.4552C33.9844 24.4067 33.863 24.3905 33.7982 24.4067C33.7497 24.4229 33.7092 24.4148 33.6769 24.3824C33.6445 24.0588 33.6041 23.7917 33.5555 23.5814C33.507 23.371 33.5474 23.1849 33.6769 23.0231C33.6769 22.9745 33.6688 22.926 33.6526 22.8774C33.6364 22.8289 33.6364 22.7722 33.6526 22.7075C33.6688 22.5295 33.6607 22.4 33.6283 22.3191C33.6121 22.2382 33.6041 22.1654 33.6041 22.1006C33.6202 22.0359 33.6364 21.9793 33.6526 21.9307C33.685 21.8822 33.7012 21.8336 33.7012 21.7851C33.7173 21.7041 33.7092 21.6232 33.6769 21.5423C33.6445 21.4452 33.6283 21.3481 33.6283 21.251C33.6283 21.1701 33.6364 21.0811 33.6526 20.984C33.6688 20.8869 33.6769 20.7979 33.6769 20.717C33.6769 20.6361 33.6526 20.5471 33.6041 20.45C33.5717 20.3529 33.5879 20.2558 33.6526 20.1587C33.685 20.0939 33.6931 19.9968 33.6769 19.8674C33.6769 19.7379 33.6769 19.6085 33.6769 19.479C33.6769 19.3981 33.6769 19.3252 33.6769 19.2605C33.6931 19.1958 33.7092 19.123 33.7254 19.042C33.7254 18.945 33.7173 18.8559 33.7012 18.775C33.7012 18.6779 33.7012 18.5889 33.7012 18.508C33.7012 18.4756 33.7092 18.4352 33.7254 18.3866C33.7416 18.3219 33.7416 18.2734 33.7254 18.241C33.6931 18.0953 33.6769 17.9821 33.6769 17.9012C33.6931 17.8202 33.7012 17.7555 33.7012 17.707C33.7173 17.626 33.7173 17.5451 33.7012 17.4642C33.7012 17.3671 33.7092 17.2619 33.7254 17.1486C33.7254 17.0839 33.7173 17.0192 33.7012 16.9545C33.685 16.8897 33.685 16.8169 33.7012 16.736C33.7173 16.5903 33.7173 16.4932 33.7012 16.4447C33.685 16.3961 33.6688 16.3476 33.6526 16.299C33.6526 16.2505 33.6607 16.2019 33.6769 16.1534C33.6931 16.1048 33.7012 16.0482 33.7012 15.9835C33.7012 15.854 33.685 15.7084 33.6526 15.5465C33.6202 15.3847 33.6041 15.2391 33.6041 15.1096C33.6364 14.7859 33.6202 14.6079 33.5555 14.5756C33.5879 14.4946 33.6121 14.4218 33.6283 14.3571C33.6445 14.2924 33.6607 14.2195 33.6769 14.1386C33.6769 14.0253 33.6688 13.9121 33.6526 13.7988C33.6364 13.6855 33.6445 13.5398 33.6769 13.3618C33.6931 13.3295 33.7092 13.289 33.7254 13.2405C33.7578 13.1919 33.774 13.1434 33.774 13.0948C33.774 13.0301 33.7659 12.9654 33.7497 12.9006C33.7335 12.8359 33.7335 12.7631 33.7497 12.6822C33.7497 12.5365 33.7578 12.3828 33.774 12.2209C33.7902 12.0591 33.8144 11.8973 33.8468 11.7355C33.8792 11.5898 33.8873 11.4846 33.8711 11.4199C33.8549 11.3552 33.8468 11.2985 33.8468 11.25C33.8468 11.1367 33.863 11.0315 33.8953 10.9344C33.9277 10.8373 33.9277 10.724 33.8953 10.5946C33.8953 10.5622 33.8873 10.5217 33.8711 10.4732C33.8711 10.4085 33.8711 10.3356 33.8711 10.2547C33.8873 10.0929 33.8873 9.9796 33.8711 9.91487C33.8549 9.83396 33.8468 9.76113 33.8468 9.6964C33.8792 9.56694 33.8873 9.49411 33.8711 9.47793C33.8549 9.46175 33.8468 9.43747 33.8468 9.40511C33.8792 9.34038 33.8873 9.29992 33.8711 9.28374C33.8549 9.25137 33.8468 9.20282 33.8468 9.13809C33.863 9.00863 33.8711 8.90344 33.8711 8.82252C33.8873 8.72543 33.8873 8.59596 33.8711 8.43413C33.8387 8.32085 33.8306 8.25612 33.8468 8.23994C33.8792 8.22375 33.8873 8.19948 33.8711 8.16711C33.8711 8.11857 33.8549 8.06192 33.8225 7.99719C33.7902 7.93246 33.7578 7.86773 33.7254 7.803C33.7578 7.7059 33.7659 7.59262 33.7497 7.46316C33.7335 7.33369 33.7335 7.20423 33.7497 7.07477C33.7497 7.0424 33.7578 7.00194 33.774 6.95339C33.7902 6.88866 33.7982 6.84011 33.7982 6.80775C33.7497 6.67828 33.7173 6.58928 33.7012 6.54073C33.7012 6.476 33.6931 6.42745 33.6769 6.39508C33.6607 6.33035 33.6364 6.26562 33.6041 6.20089C33.5717 6.13616 33.5555 6.07951 33.5555 6.03097C33.5555 5.93387 33.5798 5.84486 33.6283 5.76395C33.6769 5.68303 33.7254 5.60212 33.774 5.5212C33.8063 5.48884 33.8387 5.46456 33.8711 5.44838C33.9196 5.41601 33.9763 5.40792 34.041 5.42411C34.0734 5.39174 34.1057 5.35937 34.1381 5.32701C34.1866 5.27846 34.2352 5.238 34.2837 5.20564C34.4132 5.17327 34.5103 5.18945 34.575 5.25418C34.6559 5.30273 34.7369 5.34319 34.8178 5.37556C34.9472 5.34319 35.0848 5.3351 35.2304 5.35128C35.3761 5.35128 35.5379 5.3351 35.7159 5.30273C35.8616 5.27037 35.9668 5.26228 36.0315 5.27846C36.0962 5.27846 36.1448 5.27846 36.1771 5.27846C36.3875 5.22991 36.5574 5.20564 36.6869 5.20564C36.8164 5.20564 36.9296 5.21373 37.0267 5.22991C37.1562 5.22991 37.229 5.238 37.2452 5.25418C37.2776 5.27037 37.3099 5.27846 37.3423 5.27846C37.4232 5.24609 37.4961 5.24609 37.5608 5.27846C37.6255 5.29464 37.6902 5.31083 37.755 5.32701C37.8844 5.34319 38.0139 5.35128 38.1434 5.35128C38.2728 5.35128 38.4023 5.35937 38.5318 5.37556C38.6612 5.39174 38.7907 5.40792 38.9201 5.42411C39.0658 5.44029 39.2034 5.47265 39.3328 5.5212C39.3814 5.53739 39.4299 5.56166 39.4785 5.59403C39.527 5.62639 39.5756 5.65067 39.6241 5.66685C39.6888 5.68303 39.7617 5.69112 39.8426 5.69112C39.9397 5.67494 40.0287 5.68303 40.1096 5.7154C40.2876 5.74776 40.4575 5.8044 40.6194 5.88532C40.7974 5.95005 40.9754 5.9986 41.1534 6.03097C41.2343 6.06333 41.3233 6.0957 41.4204 6.12806C41.5175 6.14425 41.6065 6.1847 41.6874 6.24944C41.914 6.24944 42.1163 6.27371 42.2943 6.32226C42.4723 6.35462 42.626 6.40317 42.7555 6.46791C42.8364 6.50027 42.9254 6.53264 43.0225 6.565C43.1358 6.59737 43.2248 6.64592 43.2895 6.71065C43.3705 6.77538 43.4433 6.83202 43.508 6.88057C43.5727 6.92912 43.6375 6.98576 43.7022 7.05049C43.7993 7.13141 43.8559 7.19614 43.8721 7.24469C43.9045 7.27705 43.9369 7.30942 43.9692 7.34178C44.0663 7.4227 44.123 7.48743 44.1391 7.53598C44.1715 7.58453 44.2039 7.61689 44.2362 7.63308C44.3172 7.68163 44.3738 7.73017 44.4062 7.77872C44.4547 7.81109 44.5033 7.83536 44.5518 7.85155C44.5842 7.98101 44.6408 8.07811 44.7217 8.14284C44.8188 8.20757 44.9078 8.28039 44.9888 8.36131C45.0697 8.50696 45.1182 8.62024 45.1344 8.70115C45.1506 8.78207 45.191 8.83871 45.2558 8.87107C45.3367 9.14618 45.3852 9.38893 45.4014 9.5993C45.4176 9.80968 45.4904 9.97151 45.6199 10.0848C45.6037 10.2143 45.6118 10.3356 45.6442 10.4489C45.6927 10.546 45.7413 10.6512 45.7898 10.7645C45.7574 10.8454 45.7494 10.9263 45.7655 11.0072C45.7817 11.072 45.7898 11.1448 45.7898 11.2257C45.7898 11.3066 45.7655 11.3875 45.717 11.4684C45.6846 11.5493 45.7008 11.6222 45.7655 11.6869C45.7008 11.8811 45.6361 12.0834 45.5713 12.2938C45.5228 12.488 45.4419 12.6741 45.3286 12.8521C45.2962 12.8844 45.272 12.9249 45.2558 12.9734C45.2396 13.0058 45.191 13.022 45.1101 13.022C45.1263 13.1191 45.1101 13.1919 45.0616 13.2405C45.013 13.2728 44.9888 13.3295 44.9888 13.4104C44.8593 13.4913 44.7541 13.5722 44.6732 13.6531C44.6085 13.7179 44.5356 13.815 44.4547 13.9444C44.4062 14.0092 44.3576 14.0577 44.3091 14.0901C44.2767 14.1224 44.2201 14.1629 44.1391 14.2114C44.0097 14.2924 43.9126 14.349 43.8479 14.3814C43.7831 14.4137 43.7265 14.4461 43.6779 14.4785C43.5647 14.527 43.4918 14.5675 43.4595 14.5998C43.4433 14.6322 43.419 14.6565 43.3866 14.6727C43.3381 14.705 43.2815 14.7374 43.2167 14.7698C43.1682 14.7859 43.1196 14.8102 43.0711 14.8426C42.974 14.9235 42.9012 14.972 42.8526 14.9882C42.8202 15.0044 42.796 15.0206 42.7798 15.0368C42.6341 15.1015 42.4723 15.1662 42.2943 15.231C42.1325 15.2795 41.9706 15.3604 41.8088 15.4737C41.7279 15.4413 41.647 15.4494 41.5661 15.498C41.4851 15.5465 41.3961 15.587 41.299 15.6194C41.1696 15.6517 41.0563 15.6679 40.9592 15.6679C40.8783 15.6517 40.8216 15.7084 40.7893 15.8378C40.7569 15.9511 40.7893 16.032 40.8864 16.0806C40.9997 16.1291 41.1048 16.1939 41.2019 16.2748C41.2343 16.3557 41.2748 16.4366 41.3233 16.5175C41.388 16.5822 41.469 16.6308 41.5661 16.6632C41.6955 16.7926 41.7683 16.9059 41.7845 17.003C41.8169 17.1001 41.8978 17.1567 42.0273 17.1729C42.0596 17.2538 42.1244 17.359 42.2215 17.4885C42.3348 17.5856 42.3914 17.6503 42.3914 17.6827C42.4076 17.715 42.4238 17.7474 42.4399 17.7798C42.5209 17.9092 42.5775 17.9821 42.6099 17.9982C42.6422 18.0144 42.6584 18.0387 42.6584 18.0711C42.7231 18.1682 42.7879 18.2734 42.8526 18.3866C42.9335 18.4999 42.9902 18.6213 43.0225 18.7508C43.0711 18.7993 43.1196 18.8479 43.1682 18.8964C43.2167 18.945 43.2734 18.9935 43.3381 19.042C43.3381 19.1068 43.3462 19.1553 43.3624 19.1877C43.3947 19.2201 43.4109 19.2686 43.4109 19.3333C43.508 19.4466 43.6132 19.5599 43.7265 19.6732C43.8398 19.7865 43.9207 19.9321 43.9692 20.1101C44.0178 20.1425 44.0582 20.1829 44.0906 20.2315C44.123 20.2639 44.1715 20.2881 44.2362 20.3043C44.2848 20.4661 44.3576 20.6118 44.4547 20.7413C44.568 20.8545 44.6732 20.984 44.7703 21.1296C44.8188 21.2106 44.8917 21.2915 44.9888 21.3724C45.0535 21.4533 45.1101 21.5423 45.1587 21.6394C45.2072 21.7203 45.2639 21.8012 45.3286 21.8822C45.4095 22.0116 45.4661 22.1249 45.4985 22.222C45.5471 22.3029 45.6118 22.3596 45.6927 22.3919C45.7089 22.4728 45.7332 22.5376 45.7655 22.5861C45.8141 22.6185 45.8303 22.6832 45.8141 22.7803C45.8788 22.8127 45.9435 22.8531 46.0083 22.9017C46.073 22.934 46.1458 22.9664 46.2267 22.9988C46.2591 23.1282 46.2834 23.2415 46.2996 23.3386C46.3319 23.4195 46.3319 23.5085 46.2996 23.6056ZM42.9254 10.7402C42.8445 10.5784 42.796 10.4651 42.7798 10.4004C42.7798 10.3356 42.7717 10.2871 42.7555 10.2547C42.7393 10.2062 42.707 10.1657 42.6584 10.1333C42.626 10.101 42.5937 10.0605 42.5613 10.012C42.4804 9.85014 42.4076 9.74495 42.3428 9.6964C42.2943 9.66404 42.2538 9.62358 42.2215 9.57503C42.1891 9.5103 42.1486 9.46984 42.1001 9.45366C41.9706 9.35656 41.8816 9.27565 41.8331 9.21091C41.8007 9.14618 41.7441 9.12191 41.6632 9.13809C41.6308 9.04099 41.558 8.98435 41.4447 8.96817C41.3476 8.9358 41.2829 8.87107 41.2505 8.77397C41.121 8.75779 41.0158 8.72543 40.9349 8.67688C40.854 8.62833 40.765 8.57169 40.6679 8.50696C40.6194 8.52314 40.5708 8.54741 40.5223 8.57978C40.4899 8.61214 40.4333 8.62024 40.3523 8.60405C40.2714 8.58787 40.1986 8.5636 40.1339 8.53123C40.0853 8.49886 40.0206 8.47459 39.9397 8.45841C39.7617 8.47459 39.6322 8.47459 39.5513 8.45841C39.4704 8.42604 39.4056 8.40986 39.3571 8.40986C39.1953 8.34513 39.0658 8.31276 38.9687 8.31276C38.8392 8.29658 38.7017 8.30467 38.556 8.33703C38.4104 8.35322 38.2647 8.3694 38.1191 8.38558C37.844 8.38558 37.577 8.3694 37.318 8.33703C37.0591 8.30467 36.8002 8.30467 36.5413 8.33703C36.5089 8.40177 36.5089 8.45841 36.5413 8.50696C36.5898 8.53932 36.6141 8.59596 36.6141 8.67688C36.5979 8.85489 36.5979 8.98435 36.6141 9.06527C36.6303 9.13 36.6384 9.19473 36.6384 9.25946C36.606 9.38893 36.5979 9.46984 36.6141 9.50221C36.6303 9.53457 36.6384 9.55885 36.6384 9.57503V9.98769C36.606 10.1981 36.5898 10.4085 36.5898 10.6188C36.606 10.813 36.606 11.0153 36.5898 11.2257C36.5898 11.4684 36.5817 11.6869 36.5655 11.8811C36.5655 12.0591 36.5574 12.2452 36.5413 12.4394C36.5574 12.6174 36.5493 12.7388 36.517 12.8035C36.5008 12.8521 36.4927 12.9087 36.4927 12.9734C36.4765 13.1353 36.4927 13.3133 36.5413 13.5075C36.7193 13.556 36.8892 13.5803 37.051 13.5803C37.229 13.5803 37.3585 13.5803 37.4394 13.5803C37.5527 13.5965 37.6174 13.6046 37.6336 13.6046C37.666 13.5884 37.7145 13.5803 37.7793 13.5803C37.9411 13.5965 38.0867 13.6208 38.2162 13.6531C38.3618 13.6693 38.5156 13.6612 38.6774 13.6289C38.7583 13.6289 38.8311 13.6289 38.8959 13.6289C38.9768 13.6127 39.0577 13.5965 39.1386 13.5803C39.2681 13.5318 39.3571 13.5075 39.4056 13.5075C39.4704 13.5075 39.5189 13.5075 39.5513 13.5075C39.7293 13.4428 39.8507 13.4104 39.9154 13.4104C39.9801 13.3942 40.0287 13.378 40.061 13.3618C40.3847 13.2324 40.6194 13.1434 40.765 13.0948C40.9916 13.0139 41.1615 12.9573 41.2748 12.9249C41.4042 12.8925 41.5175 12.8683 41.6146 12.8521C41.6632 12.7064 41.7603 12.6174 41.9059 12.5851C42.0515 12.5527 42.1406 12.4475 42.1729 12.2695C42.2215 12.2371 42.27 12.2209 42.3186 12.2209C42.3833 12.2209 42.4238 12.1886 42.4399 12.1238C42.4885 11.9782 42.537 11.8245 42.5856 11.6626C42.6341 11.5008 42.6989 11.3632 42.7798 11.25C42.7636 11.1205 42.7717 11.0396 42.8041 11.0072C42.8526 10.9587 42.8931 10.8697 42.9254 10.7402Z" fill="white"/>
<path d="M25.5324 8.38417C25.2437 9.05049 24.53 9.78556 24.2093 10.0698L18.8534 4.79025C21.4269 2.24451 23.6415 3.13462 24.4424 3.79376C26.3509 5.36437 25.8865 7.47856 25.5324 8.38417Z" stroke="white" stroke-width="3.02592" stroke-linecap="round" stroke-linejoin="round"/>
<path d="M22.8559 6.97268C20.833 4.37215 15.7356 3.84678 13.0463 3.95668C8.81288 4.12967 5.53893 5.8717 3.69085 7.56333C2.89296 8.29367 2.51084 9.34948 2.43187 10.4287C1.99416 16.4104 3.31372 19.2276 4.07292 20.5496C5.23763 22.5776 8.51666 24.636 10.4397 25.148C15.8827 26.5973 19.296 25.4085 20.9372 24.5158C25.0633 22.2716 26.2505 17.481 26.0553 15.3855C25.6089 10.5942 23.8845 8.29483 22.8559 6.97268Z" stroke="white" stroke-width="3.02592" stroke-linecap="round" stroke-linejoin="round"/>
<path fill-rule="evenodd" clip-rule="evenodd" d="M7.91276 4.72055C8.39468 5.18194 8.64455 5.71707 8.69593 5.95797C8.87015 6.77489 9.67393 7.295 10.4912 7.11967C11.3085 6.94434 11.8298 6.13996 11.6556 5.32304C11.4613 4.41208 10.8655 3.35551 10.0072 2.53378C9.12121 1.68549 7.82537 0.96773 6.20649 1.02776L6.20142 1.02795L6.20142 1.02796C5.11643 1.07183 2.64775 1.62251 1.0817 3.66203C0.416809 4.52794 -0.071563 5.84485 0.133138 7.37268C0.341074 8.92466 1.23733 10.5132 3.01663 11.9708C3.6626 12.5 4.61601 12.4048 5.14614 11.7582C5.67627 11.1115 5.58236 10.1584 4.9364 9.62925C3.6112 8.54368 3.2173 7.59979 3.1325 6.96687C3.04446 6.30981 3.26078 5.7894 3.48108 5.5025C4.29983 4.43621 5.74181 4.07541 6.31706 4.05129C6.92116 4.02968 7.45923 4.28634 7.91276 4.72055Z" fill="white"/>
<path fill-rule="evenodd" clip-rule="evenodd" d="M5.95094 0.786487C6.29751 0.710965 6.69047 0.654989 7.07859 0.745371C7.22673 0.779871 7.35917 0.845419 7.45789 0.894284C7.46254 0.896586 7.46712 0.898851 7.47162 0.901075C7.5829 0.95605 7.65731 0.990788 7.73148 1.00699C8.0343 1.07316 8.35433 1.16431 8.64143 1.25022C8.93199 1.33717 9.23684 1.50899 9.46128 1.64242C9.51132 1.67217 9.56441 1.7015 9.62291 1.73369L9.63069 1.73797C9.68563 1.76819 9.74521 1.80097 9.80411 1.83553C9.92679 1.90749 10.0619 1.99578 10.1797 2.1116C10.2917 2.22173 10.3907 2.34721 10.4759 2.45519C10.4843 2.46582 10.4926 2.47628 10.5007 2.48654C10.5564 2.55693 10.607 2.6196 10.6568 2.67495C10.66 2.67356 10.6633 2.67217 10.6666 2.67081C10.681 2.66479 10.7084 2.65392 10.7412 2.64675C10.7603 2.64259 10.7798 2.63819 10.7998 2.63367C10.9363 2.6029 11.096 2.56689 11.2823 2.56689C11.5307 2.56689 11.7755 2.57644 12.0138 2.58574L12.0171 2.58587C12.2584 2.59528 12.493 2.60439 12.7296 2.60439C13.0042 2.60439 13.278 2.5864 13.5637 2.56754L13.5671 2.56731C13.8486 2.54873 14.1417 2.52938 14.4397 2.52938C15.0772 2.52938 15.7044 2.62632 16.3045 2.71907L16.3134 2.72044C16.924 2.81482 17.507 2.90442 18.0909 2.90442C18.182 2.90442 18.2607 2.91537 18.3254 2.92677C18.3603 2.93293 18.3843 2.93768 18.4045 2.94168C18.4292 2.94659 18.4483 2.95037 18.4751 2.95426C18.5329 2.96266 18.5626 2.96105 18.614 2.93296C18.6534 2.91144 18.6801 2.89232 18.7178 2.86539C18.7412 2.84864 18.7688 2.82886 18.8064 2.80359C18.8914 2.74643 19.0027 2.68141 19.1518 2.64884C19.2047 2.63729 19.2631 2.61122 19.352 2.56556C19.3614 2.56073 19.3713 2.55556 19.3817 2.55015C19.4574 2.51085 19.5587 2.4583 19.6648 2.42352C19.7356 2.40031 19.8053 2.3719 19.8872 2.33854L19.8921 2.33654C19.9727 2.3037 20.0653 2.26612 20.1637 2.23502C20.2598 2.20465 20.3619 2.17983 20.4519 2.15798C20.4774 2.15178 20.502 2.14581 20.5252 2.14002C20.6376 2.11192 20.7308 2.0851 20.8128 2.04884C20.851 2.03192 20.89 2.01435 20.9297 1.99644C21.2681 1.84377 21.6604 1.66679 22.115 1.66679C22.2561 1.66679 22.3899 1.65121 22.5421 1.63347C22.5947 1.62735 22.6495 1.62096 22.7076 1.61487C22.9217 1.59244 23.1649 1.57688 23.4222 1.62637C23.5136 1.64396 23.6022 1.66142 23.6896 1.67864C23.8601 1.71222 24.0258 1.74487 24.1981 1.77567C24.3225 1.7979 24.4401 1.82893 24.5465 1.85796C24.5621 1.86221 24.5774 1.86641 24.5925 1.87053C24.6836 1.8955 24.7656 1.91797 24.8493 1.93626C24.9988 1.96892 25.1324 2.04743 25.228 2.10784C25.2697 2.13416 25.3044 2.157 25.3351 2.17719C25.389 2.21267 25.4305 2.24 25.4759 2.26381C25.6325 2.34595 25.7249 2.44144 25.7939 2.55194C25.8173 2.58955 25.8387 2.6304 25.8546 2.6607C25.8577 2.66665 25.8606 2.67219 25.8632 2.67721C25.8817 2.71205 25.8985 2.74221 25.9201 2.77408C25.994 2.88305 26.0511 2.99942 26.0987 3.10045C26.1094 3.12321 26.1196 3.14501 26.1293 3.16601C26.1658 3.24437 26.1972 3.31162 26.233 3.37623C26.2604 3.42566 26.3045 3.4793 26.3689 3.54333C26.4108 3.58495 26.4466 3.61751 26.4862 3.65351C26.5159 3.68048 26.5478 3.70938 26.5858 3.74548C26.8019 3.95033 27.017 4.15434 27.1868 4.47226C27.3457 4.76994 27.408 5.02898 27.4728 5.29838C27.4809 5.33231 27.4891 5.3664 27.4976 5.40076C27.5726 5.70661 27.5694 6.02187 27.5666 6.29208C27.5661 6.34139 27.5656 6.3892 27.5656 6.43518C27.5656 6.5788 27.5744 6.7237 27.5841 6.87995L27.5843 6.88284C27.5937 7.03521 27.6037 7.19848 27.6037 7.36445C27.6037 7.68269 27.5863 8.06467 27.4963 8.40594C27.4749 8.48701 27.4485 8.567 27.4255 8.63669C27.4215 8.64881 27.4176 8.66062 27.4139 8.67208C27.3871 8.75377 27.3657 8.82311 27.3515 8.89093C27.3421 8.93606 27.3382 8.97917 27.3328 9.03887C27.3301 9.0678 27.3272 9.10063 27.323 9.13947C27.3124 9.23953 27.2934 9.37745 27.2306 9.50791C27.2018 9.56772 27.1629 9.63102 27.1365 9.67399C27.1287 9.68661 27.1221 9.69748 27.117 9.70599C27.0884 9.75455 27.0762 9.78262 27.0705 9.80755C27.0563 9.86862 27.0283 9.91703 27.0113 9.94404C26.9916 9.97519 26.9692 10.0043 26.9485 10.0294C26.9081 10.0782 26.8601 10.1282 26.8155 10.1724C26.9204 10.3275 26.987 10.506 27.0322 10.6565C27.1096 10.9143 27.1505 11.1866 27.1766 11.3606C27.178 11.3703 27.1794 11.3797 27.1808 11.3888C27.2278 11.7007 27.3053 12.0005 27.3867 12.315C27.4284 12.4761 27.471 12.641 27.5111 12.8135C27.6275 13.3139 27.7091 13.8445 27.7884 14.3602C27.8372 14.6778 27.8852 14.9898 27.9399 15.2855C28.0121 15.6763 28.0233 16.1028 28.0233 16.4738C28.0233 16.9792 27.9856 17.5123 27.8403 18.0267C27.814 18.1199 27.79 18.2206 27.7645 18.3305L27.7565 18.3648C27.7337 18.4628 27.7094 18.5673 27.6822 18.6708C27.622 18.9 27.5414 19.1509 27.4062 19.3698C27.3392 19.4784 27.3011 19.6069 27.2491 19.782C27.2397 19.8136 27.2299 19.8467 27.2194 19.8815C27.1577 20.0853 27.0702 20.3472 26.871 20.554C26.7493 20.6803 26.6642 20.8451 26.5675 21.0571C26.5567 21.0807 26.5457 21.1051 26.5344 21.1302C26.4513 21.3147 26.3526 21.5339 26.2118 21.7243C26.184 21.7619 26.159 21.8067 26.1256 21.8704C26.1223 21.8767 26.1189 21.8833 26.1153 21.8901C26.0864 21.9457 26.0492 22.017 26.0047 22.0842C25.9635 22.1466 25.9161 22.2021 25.8834 22.2403C25.8775 22.2471 25.8721 22.2534 25.8674 22.2591C25.8314 22.3016 25.8118 22.3283 25.7973 22.3568C25.7486 22.4525 25.6803 22.5682 25.6023 22.6774C25.5269 22.7829 25.4296 22.9006 25.3198 22.9846C25.2699 23.0227 25.221 23.0775 25.1639 23.1545C25.1368 23.1911 25.1105 23.2289 25.0813 23.271L25.077 23.2772C25.0471 23.3203 25.0138 23.368 24.9788 23.4144C24.8291 23.6125 24.6528 23.7856 24.4944 23.9411C24.4836 23.9517 24.4729 23.9623 24.4622 23.9727C24.3358 24.097 24.2171 24.2272 24.0921 24.3642C24.0544 24.4055 24.0161 24.4475 23.9769 24.4901C23.8116 24.6696 23.6336 24.8559 23.4329 25.0229C23.3941 25.0552 23.3534 25.0903 23.3106 25.1271C23.0651 25.3387 22.7528 25.6077 22.3633 25.7256C22.2215 25.7685 22.0993 25.8119 22.0089 25.869C21.9204 25.925 21.8215 25.9604 21.7609 25.9822C21.7516 25.9855 21.7431 25.9885 21.7358 25.9913C21.6663 26.017 21.6453 26.0303 21.6337 26.0411C21.5537 26.1156 21.447 26.1959 21.3383 26.2647C21.2319 26.3319 21.1046 26.4002 20.9834 26.4376C20.9265 26.4552 20.8614 26.4916 20.7684 26.5521C20.7541 26.5614 20.7386 26.5717 20.7223 26.5825C20.6464 26.6328 20.5507 26.6962 20.4552 26.7431C20.2726 26.8329 20.0622 26.8815 19.8985 26.9193C19.8576 26.9288 19.8197 26.9375 19.7858 26.9461C19.6666 26.9762 19.547 27.0148 19.4165 27.057L19.4104 27.059C19.2846 27.0996 19.1484 27.1437 19.0087 27.1793C18.7294 27.2505 18.426 27.3024 18.1382 27.3516C17.9728 27.3799 17.8126 27.4073 17.665 27.4369C17.2102 27.5284 16.7791 27.5845 16.3003 27.5845C16.2205 27.5845 16.1358 27.5877 16.0435 27.5917L16.0114 27.593C15.9301 27.5965 15.8434 27.6002 15.7569 27.6018C15.5625 27.6053 15.3449 27.5987 15.1372 27.5462L15.0994 27.5366C14.8074 27.4626 14.5482 27.397 14.2956 27.397C14.1117 27.397 13.9294 27.4142 13.7311 27.4331L13.7241 27.4338C13.5322 27.4522 13.3246 27.472 13.1111 27.472C12.7261 27.472 12.3418 27.4375 11.9743 27.3973C11.7434 27.3721 11.5183 27.2825 11.3295 27.1993C11.2675 27.172 11.2101 27.1458 11.1558 27.121C11.0297 27.0634 10.9208 27.0136 10.8123 26.9767C10.6699 26.9282 10.5159 26.8793 10.3583 26.8291C10.1199 26.7532 9.87308 26.6747 9.6446 26.5911C9.49905 26.5378 9.34383 26.4996 9.16923 26.4566C9.12427 26.4456 9.07802 26.4342 9.03032 26.4222C8.80917 26.3663 8.56219 26.2973 8.33783 26.1785C8.19202 26.1013 8.0473 26.0343 7.89523 25.9639C7.84349 25.9399 7.79089 25.9155 7.7371 25.8902C7.53051 25.7931 7.31438 25.6856 7.10364 25.5475C6.89052 25.4078 6.70475 25.2497 6.53322 25.0947C6.47066 25.0381 6.41159 24.9835 6.35386 24.9302C6.24756 24.8319 6.14579 24.7379 6.03506 24.6435C5.87187 24.5044 5.69896 24.3733 5.51763 24.2357C5.47141 24.2007 5.42464 24.1652 5.37735 24.1291C5.14908 23.9547 4.91268 23.7681 4.69906 23.5581C4.45207 23.3152 4.19044 23.082 3.92209 22.8445C3.90127 22.8261 3.8804 22.8076 3.8595 22.7892C3.6128 22.571 3.36102 22.3483 3.11916 22.1171C2.79825 21.8104 2.61631 21.4794 2.44187 21.162C2.4002 21.0862 2.35895 21.0112 2.31634 20.9375C2.06132 20.4962 1.91705 19.9944 1.7864 19.5399C1.74692 19.4026 1.70868 19.2696 1.66901 19.1439C1.64141 19.0565 1.62132 18.9695 1.60418 18.8952C1.58615 18.8171 1.57105 18.7519 1.55196 18.6902C1.54335 18.6624 1.5265 18.6335 1.48077 18.5598L1.47849 18.5561C1.44051 18.4949 1.37798 18.3941 1.34783 18.2701C1.3234 18.1697 1.29234 18.0767 1.25715 17.9713C1.24407 17.9321 1.23042 17.8912 1.21632 17.8476C1.16729 17.6959 1.11714 17.522 1.10092 17.3306C1.06011 16.849 0.999204 16.3737 0.937426 15.8916C0.914793 15.715 0.892044 15.5374 0.87012 15.3583C0.78902 14.6957 0.720527 14.0204 0.720527 13.3318C0.720527 13.2407 0.718861 13.1442 0.717142 13.0446C0.713262 12.8199 0.709111 12.5795 0.723217 12.3506C0.733696 12.1806 0.757864 12.0149 0.779898 11.8638C0.782576 11.8454 0.785222 11.8273 0.787809 11.8093C0.812408 11.639 0.832426 11.485 0.834999 11.3307C0.840595 10.995 0.966913 10.6067 1.06007 10.345C1.06693 10.3258 1.07378 10.3068 1.08056 10.288C1.10401 10.2231 1.12663 10.1606 1.1457 10.0958C1.17097 10.0101 1.17959 9.95298 1.17845 9.9215C1.17443 9.81105 1.12941 9.69547 1.04725 9.53813C1.0329 9.51065 1.01668 9.48074 0.999405 9.44888C0.929828 9.32059 0.843059 9.1606 0.791893 8.99961C0.776991 8.95273 0.758131 8.90919 0.732784 8.85068C0.725164 8.8331 0.716958 8.81415 0.708098 8.79336C0.673789 8.71286 0.631585 8.60802 0.610702 8.48995C0.59901 8.42385 0.587872 8.3463 0.577671 8.27528C0.57149 8.23225 0.565654 8.19161 0.560245 8.15736C0.543804 8.05323 0.525656 7.96443 0.49914 7.88622C0.410773 7.62556 0.325432 7.34058 0.275699 7.0533C0.250348 6.90685 0.245569 6.7598 0.241547 6.63606C0.24132 6.62907 0.241096 6.62215 0.24087 6.61532C0.236385 6.47959 0.231441 6.36942 0.211195 6.2659C0.165922 6.03442 0.153837 5.73632 0.184282 5.44977C0.213984 5.17021 0.288695 4.85701 0.451241 4.62616C0.512137 4.53967 0.593539 4.34205 0.640081 4.19968C0.80197 3.70447 1.12939 3.18841 1.49515 2.82199C1.62281 2.6941 1.75422 2.57028 1.88257 2.44986C1.89308 2.43999 1.90357 2.43016 1.91404 2.42034C2.03242 2.30931 2.14779 2.20111 2.26001 2.09076C2.41057 1.94273 2.57133 1.868 2.70782 1.81375C2.74692 1.79821 2.782 1.78492 2.81443 1.77263C2.90311 1.73903 2.97186 1.71299 3.04818 1.66922C3.62501 1.33837 4.33063 1.09757 4.99272 1.00307C5.13217 0.983169 5.28094 0.94944 5.4435 0.909405C5.48509 0.899161 5.52796 0.888404 5.57172 0.877426C5.69406 0.846728 5.82331 0.814298 5.95094 0.786487Z" fill="white"/>
<path d="M24.9728 8.34899C24.7083 8.96614 24.0544 9.64698 23.7605 9.91025L18.8534 5.02025C21.2113 2.66235 23.2403 3.48679 23.9741 4.09729C25.7228 5.55201 25.2973 7.5102 24.9728 8.34899Z" fill="#FF4DAD"/>
<path fill-rule="evenodd" clip-rule="evenodd" d="M22.0304 3.99561C22.774 3.98537 23.3406 4.2857 23.6223 4.52011C25.084 5.73616 24.7602 7.36728 24.4634 8.14079C24.3609 8.37599 24.172 8.64942 23.9549 8.91024C23.8893 8.98898 23.8236 9.0638 23.7602 9.13303L19.647 5.03425C20.5756 4.24132 21.3942 4.00438 22.0304 3.99561ZM22.0152 2.89538C20.9549 2.90999 19.7268 3.36866 18.4644 4.6311C18.3611 4.73439 18.3031 4.87453 18.3033 5.02061C18.3034 5.16669 18.3616 5.30672 18.4651 5.40983L23.3722 10.2998C23.5789 10.5058 23.9104 10.5146 24.1277 10.3199C24.294 10.1709 24.5497 9.91559 24.8006 9.61416C25.0474 9.31767 25.3157 8.94561 25.4785 8.56559C25.4811 8.55956 25.4836 8.55349 25.4859 8.54737C25.8372 7.63935 26.3555 5.36258 24.326 3.67422L24.326 3.67422C23.874 3.29813 23.0591 2.881 22.0152 2.89538Z" fill="#1B1F28"/>
<path d="M22.6137 5.10613C21.833 4.76984 21.1318 5.2562 20.7774 5.82305L22.8132 9.15598C23.043 8.99389 23.2385 8.78386 23.3623 8.5313C24.3659 6.48353 23.4618 5.60617 22.6137 5.10613Z" fill="#B21A6C"/>
<path d="M22.1488 7.75599C20.3059 5.41587 15.6562 4.94767 13.2027 5.04926C9.43579 5.20524 6.50002 6.70463 4.79171 8.19372C3.96887 8.91097 3.58052 9.97597 3.488 11.0636C3.03676 16.3683 3.75576 19.0497 4.43974 20.227C5.50027 22.0524 9.0186 23.6986 10.7724 24.1579C15.7365 25.4579 18.883 24.3632 20.3811 23.5576C24.1474 21.5323 25.2351 17.213 25.1241 15.4319C24.7216 11.1172 23.0858 8.94575 22.1488 7.75599Z" fill="#FF4DAD"/>
<path d="M13.3359 24.9304C6.87265 22.791 3.29087 16.4853 3.29087 11.8853L2.8613 15.228L4.37863 20.0528L7.74109 23.8978L13.3359 24.9304Z" fill="#B21A6C"/>
<path d="M21.5972 9.13516C21.3138 8.88257 20.7366 8.56266 19.9636 9.0153" stroke="#1B1F28" stroke-width="0.962793" stroke-linecap="round" stroke-linejoin="round"/>
<path d="M13.1166 8.6192C12.8297 8.22527 11.7716 7.64374 10.5621 8.38963" stroke="#1B1F28" stroke-width="0.962793" stroke-linecap="round" stroke-linejoin="round"/>
<ellipse cx="1.30667" cy="1.58818" rx="1.30667" ry="1.58818" transform="matrix(-0.997174 0.0751232 0.0751232 0.997174 13.0684 9.69434)" fill="#1B1F28" stroke="#1B1F28" stroke-width="1.10034" stroke-linecap="round" stroke-linejoin="round"/>
<ellipse cx="0.716814" cy="1.36854" rx="0.716814" ry="1.36854" transform="matrix(-0.996468 0.0839683 0.0839683 0.996468 21.3906 10.3584)" fill="#1B1F28" stroke="#1B1F28" stroke-width="1.10034" stroke-linecap="round" stroke-linejoin="round"/>
<path d="M17.2983 12.512C18.6648 12.3495 19.7873 12.7586 20.5368 13.2309C20.9086 13.4652 21.2842 13.9153 21.0368 14.2785C20.6862 14.7934 19.4298 14.6529 18.59 14.5002C17.1508 14.1447 16.6398 13.6204 16.5609 13.1811C16.492 12.7978 16.9116 12.558 17.2983 12.512Z" fill="#1B1F28" stroke="#1B1F28" stroke-width="1.10034" stroke-linecap="round" stroke-linejoin="round"/>
<path d="M15.4408 20.1078L12.602 15.2758C12.5289 15.1513 12.5303 14.9762 12.6579 14.9084C12.858 14.8021 12.9784 15.0259 13.1405 15.2165C14.698 17.0484 16.0602 17.3153 17.3007 17.6349C18.3825 17.9135 20.0648 17.8516 20.7582 17.8423C20.3868 19.2134 19.462 20.5256 19.046 21.0103C17.9786 22.254 16.0008 21.1364 15.4408 20.1078Z" fill="#1B1F28" stroke="#1B1F28" stroke-width="1.10034" stroke-linecap="round" stroke-linejoin="round"/>
<path d="M16.8636 19.3374C18.9843 19.2997 19.2835 20.3518 19.1557 20.8019C19.0115 21.3098 17.9296 22.0533 16.1138 20.7162C15.8794 20.5436 15.6865 20.3212 15.5244 20.0794L14.1204 17.985C15.5914 19.3347 16.2184 19.3488 16.8636 19.3374Z" fill="#FF4DAD" stroke="#1B1F28" stroke-width="0.22993" stroke-linecap="round" stroke-linejoin="round"/>
<path d="M21.1804 13.3531C21.7804 13.7009 22.63 14.0754 22.6967 15.686C22.7352 16.6171 21.9972 17.6493 20.6952 17.8435" stroke="#1B1F28" stroke-width="1.10034" stroke-linecap="round" stroke-linejoin="round"/>
<path d="M12.1018 12.9446C13.9804 12.3859 15.9476 12.1393 17.969 12.2212C18.8998 12.2589 20.2 12.6248 20.8579 13.1502" stroke="#1B1F28" stroke-width="1.10034" stroke-linecap="round" stroke-linejoin="round"/>
<path d="M11.9445 11.0767C12.5894 10.7092 12.3686 10.164 12.0461 9.84263C11.8949 9.69206 11.6811 9.60987 11.4709 9.64627C11.3319 9.67033 11.2039 9.72433 11.0951 9.79548C10.8819 9.93503 10.8014 10.2033 10.8351 10.4559C10.9427 11.2607 11.5673 11.2417 11.9445 11.0767Z" fill="white" stroke="#1B1F28" stroke-width="0.275084" stroke-linecap="round" stroke-linejoin="round"/>
<path d="M20.947 11.4558C21.5111 11.2179 21.4067 10.7739 21.1801 10.4784C21.0524 10.3119 20.8478 10.2107 20.6393 10.2338C20.5557 10.2431 20.4758 10.2644 20.4024 10.2943C20.1622 10.3922 20.04 10.658 20.0614 10.9165C20.1117 11.5228 20.6211 11.5554 20.947 11.4558Z" fill="white" stroke="#1B1F28" stroke-width="0.275084" stroke-linecap="round" stroke-linejoin="round"/>
<path d="M20.5062 13.7257C19.4678 13.0908 18.4347 12.9945 17.652 13.0921C17.3677 13.1275 17.2217 12.87 17.4973 12.7916C18.2623 12.574 19.2042 12.7281 19.7183 12.8857C20.2553 13.0734 20.5711 13.3199 20.7472 13.5443C20.8847 13.7196 20.6963 13.842 20.5062 13.7257Z" fill="white" stroke="white" stroke-width="0.137542" stroke-linecap="round" stroke-linejoin="round"/>
<path fill-rule="evenodd" clip-rule="evenodd" d="M18.1548 4.41549C16.3413 3.992 14.4639 3.89577 13.1571 3.94988C9.12591 4.1168 5.95439 5.72044 4.06855 7.36428C2.96227 8.3286 2.49138 9.70572 2.40305 10.9892C2.02564 16.4731 3.29113 19.0993 4.07757 20.453C4.72211 21.5624 5.87264 22.6157 7.0203 23.4288C8.17242 24.2451 9.47336 24.9262 10.5251 25.2016C15.7746 26.5764 19.1744 25.4557 20.902 24.5267C23.0416 23.3762 24.4016 21.5843 25.1981 19.8514C25.9846 18.1404 26.2636 16.3962 26.1546 15.2274L25.059 15.3296C25.2351 17.2167 24.1473 21.5323 20.3809 23.5576C18.8828 24.3632 15.7679 25.4371 10.8039 24.1372C9.05 23.6779 6.08952 21.7256 5.02899 19.9002C4.34538 18.7236 3.13948 16.3147 3.50079 11.0648C3.57573 9.97578 3.96873 8.91098 4.79157 8.19373C6.49987 6.70464 9.43565 5.20525 13.2026 5.04927C15.6561 4.94768 20.3057 5.41588 22.1486 7.756C23.0856 8.94576 24.6565 11.015 25.059 15.3296L26.1546 15.2274C25.7253 10.6258 24.0244 8.35935 23.0131 7.07522C21.8563 5.60638 19.9289 4.82979 18.1548 4.41549Z" fill="#1B1F28"/>
<path d="M17.1243 19.4556C15.5121 19.3634 15.0504 18.8569 14.7188 18.6386L15.7502 20.1749L16.6316 20.1384L17.1243 19.4556Z" fill="#FF4DAD"/>
<path d="M3.58519 9.93897L9.70405 5.60566L9.32254 4.77751L8.15433 3.54631L7.09086 3.1499L5.36101 3.29239L3.57075 4.1759L2.61184 5.42228L2.35818 7.00362L2.77969 8.68441L3.58519 9.93897Z" fill="#FF4DAD"/>
<path d="M9.74244 5.82661C9.52433 4.76893 8.23714 2.90427 6.25424 2.98176C5.51486 3.01321 3.7699 3.43307 2.70505 4.86091C1.91495 5.92035 1.4456 8.23682 4.2114 10.57" stroke="#1B1F28" stroke-width="1.10034" stroke-linecap="round" stroke-linejoin="round"/>
<path d="M5.49106 4.93894C6.963 4.29769 7.93194 5.20584 8.35066 5.93088C8.44469 6.0937 8.38783 6.29556 8.23775 6.4088L5.56249 8.42739C5.34902 8.59514 5.12953 8.70084 4.95676 8.39539C3.76385 6.28631 4.81591 5.21231 5.49106 4.93894Z" fill="#B21A6C"/>
</svg>
